<mxfile host="Electron" modified="2024-03-04T10:26:23.783Z" agent="Mozilla/5.0 (Windows NT 10.0; Win64; x64) AppleWebKit/537.36 (KHTML, like Gecko) draw.io/23.0.2 Chrome/120.0.6099.109 Electron/28.1.0 Safari/537.36" etag="oIovZs0wkIPAiTUIKI7p" version="23.0.2" type="device" pages="2">
  <diagram name="VPN_Sprut_scheme" id="Ha8s6_4_4nTsxysomdbX">
    <mxGraphModel dx="2891" dy="1193" grid="1" gridSize="10" guides="1" tooltips="1" connect="1" arrows="1" fold="1" page="1" pageScale="1" pageWidth="827" pageHeight="1169" math="0" shadow="0">
      <root>
        <mxCell id="0" />
        <mxCell id="1" parent="0" />
        <mxCell id="l8OaLnw3HOuMR9vGeQDa-23" value="&lt;font color=&quot;#212121&quot; style=&quot;font-size: 20px;&quot;&gt;Client Network&lt;/font&gt;" style="rounded=1;whiteSpace=wrap;html=1;fontFamily=VK Sans Display;strokeColor=none;arcsize=12;fillColor=#F6F7F9;spacing=0;spacingTop=12;spacingBottom=12;arcSize=12;absoluteArcSize=1;strokeWidth=1;fontSize=20;verticalAlign=middle;labelBackgroundColor=none;fontSource=https://fonts.googleapis.com/css?family=Architects+Daughter;" vertex="1" parent="1">
          <mxGeometry x="-577" y="251" width="160" height="60" as="geometry" />
        </mxCell>
        <mxCell id="l8OaLnw3HOuMR9vGeQDa-1" value="" style="rounded=0;whiteSpace=wrap;html=1;hachureGap=4;fontFamily=VK Sans Display;fontSource=https://fonts.googleapis.com/css?family=Architects+Daughter;fontSize=20;fontColor=#212121;fillColor=none;strokeColor=none;" vertex="1" parent="1">
          <mxGeometry x="-820" y="10" width="1500" height="420" as="geometry" />
        </mxCell>
        <mxCell id="l8OaLnw3HOuMR9vGeQDa-10" value="&lt;b style=&quot;&quot;&gt;&lt;font style=&quot;font-size: 20px;&quot;&gt;&lt;br&gt;VK Cloud Network&lt;br&gt;&lt;/font&gt;&lt;/b&gt;" style="rounded=1;whiteSpace=wrap;html=1;strokeColor=#7C8A9A;strokeWidth=1;fontColor=default;fillColor=none;dashed=1;arcSize=12;absoluteArcSize=1;verticalAlign=top;fontSize=20;fontFamily=VK Sans Display;labelBackgroundColor=none;fontSource=https://fonts.googleapis.com/css?family=Architects+Daughter;dashPattern=8 8;" vertex="1" parent="1">
          <mxGeometry x="3" y="20" width="664" height="400" as="geometry" />
        </mxCell>
        <mxCell id="l8OaLnw3HOuMR9vGeQDa-2" value="&lt;font style=&quot;font-size: 20px;&quot;&gt;&lt;br&gt;&lt;font style=&quot;font-size: 20px;&quot; face=&quot;VK Sans Display&quot;&gt;&lt;b&gt;Client Network&lt;/b&gt;&lt;/font&gt;&lt;br&gt;&lt;/font&gt;" style="rounded=1;whiteSpace=wrap;html=1;strokeColor=#7C8A9A;strokeWidth=1;fontColor=default;fillColor=none;dashed=1;arcSize=12;absoluteArcSize=1;align=center;verticalAlign=top;fontSize=20;fontFamily=VK Sans Display;labelBackgroundColor=none;fontSource=https://fonts.googleapis.com/css?family=Architects+Daughter;dashPattern=8 8;" vertex="1" parent="1">
          <mxGeometry x="-806" y="20" width="664" height="400" as="geometry" />
        </mxCell>
        <mxCell id="l8OaLnw3HOuMR9vGeQDa-4" value="Cloud servers" style="shape=image;verticalLabelPosition=bottom;labelBackgroundColor=none;verticalAlign=top;aspect=fixed;imageAspect=0;image=data:image/svg+xml,PHN2ZyB4bWxucz0iaHR0cDovL3d3dy53My5vcmcvMjAwMC9zdmciIGZpbGw9Im5vbmUiIHZpZXdCb3g9IjAgMCA0OSAzMCIgaGVpZ2h0PSIzMCIgd2lkdGg9IjQ5Ij4mI3hhOzxwYXRoIGZpbGw9IiMwMDc3RkYiIGQ9Ik0wIDEwLjMzMzNDMCA3LjA2NjM2IDAgNC40MzI4NyAwLjYzNTc5NiAzLjE4NTA2QzEuMTk1MDYgMi4wODc0NCAyLjA4NzQ0IDEuMTk1MDYgMy4xODUwNiAwLjYzNTc5NUMzLjMxMDkyIDAuNTcxNjYyIDMuNDIwMzcgMC41MTM5OTggMy41MTg3NyAwLjQ2MjE1QzMuNzQ5NCAwLjM0MDYzNSAzLjkxOTM5IDAuMjUxMDcxIDQuMDk4MDcgMC4xODUwNTZDNC41OTg5OCAwIDUuMTY4MjUgMCA3LjMzMzMzIDBIMTJDMTQuMTY1MSAwIDE0LjczNDQgMCAxNS4yMzUzIDAuMTg1MDU2QzE1LjQxMzkgMC4yNTEwNzEgMTUuNTgzOSAwLjM0MDYzNSAxNS44MTQ2IDAuNDYyMTVDMTUuOTEyOSAwLjUxMzk4OCAxNi4wMjI0IDAuNTcxNjc3IDE2LjE0ODMgMC42MzU3OTVDMTcuMjQ1OSAxLjE5NTA2IDE4LjEzODMgMi4wODc0NCAxOC42OTc1IDMuMTg1MDZDMTguODczMiAzLjUyOTc2IDE5LjAwMDMgMy45ODAyIDE5LjA5MjMgNC41MjA1MkMxOS4wOTQyIDQuNTE5OCAxOS4wOTYxIDQuNTE5MDggMTkuMDk4MSA0LjUxODM3QzE5LjU5OSA0LjMzMzMxIDIwLjE2ODMgNC4zMzMzMSAyMi4zMzMzIDQuMzMzMzFIMjdDMjguMTA0NSA0LjMzMzMxIDI4Ljc5MzYgNC4zMzMzMSAyOS4yNzAzIDQuMzU3ODhDMjkuMzU5NSAzLjg4OTM0IDI5LjQ3ODEgMy40OTQ1NyAyOS42MzU4IDMuMTg1MDZDMzAuMTk1MSAyLjA4NzQ0IDMxLjA4NzQgMS4xOTUwNiAzMi4xODUxIDAuNjM1Nzk1QzMyLjMxMDkgMC41NzE2NjIgMzIuNDIwNCAwLjUxMzk5OCAzMi41MTg4IDAuNDYyMTVDMzIuNzQ5NCAwLjM0MDYzNSAzMi45MTk0IDAuMjUxMDcxIDMzLjA5ODEgMC4xODUwNTZDMzMuNTk5IDAgMzQuMTY4MyAwIDM2LjMzMzMgMEg0MUM0My4xNjUxIDAgNDMuNzM0NCAwIDQ0LjIzNTMgMC4xODUwNTZDNDQuNDEzOSAwLjI1MTA3MSA0NC41ODM5IDAuMzQwNjM1IDQ0LjgxNDYgMC40NjIxNUM0NC45MTI5IDAuNTEzOTg4IDQ1LjAyMjQgMC41NzE2NzcgNDUuMTQ4MyAwLjYzNTc5NUM0Ni4yNDU5IDEuMTk1MDYgNDcuMTM4MyAyLjA4NzQ0IDQ3LjY5NzUgMy4xODUwNkM0OC4zMzMzIDQuNDMyODcgNDguMzMzMyA3LjA2NjM2IDQ4LjMzMzMgMTAuMzMzM1YxNUM0OC4zMzMzIDE4LjI2NyA0OC4zMzMzIDIwLjkwMDUgNDcuNjk3NSAyMi4xNDgzQzQ3LjEzODMgMjMuMjQ1OSA0Ni4yNDU5IDI0LjEzODMgNDUuMTQ4MyAyNC42OTc1QzQ1LjAyMjcgMjQuNzYxNSA0NC45MTM1IDI0LjgxOSA0NC44MTUzIDI0Ljg3MDhDNDQuNTg0NyAyNC45OTIzIDQ0LjQxMzkgMjUuMDgyMyA0NC4yMzUzIDI1LjE0ODNDNDMuNzM0NCAyNS4zMzMzIDQzLjE2NTEgMjUuMzMzMyA0MSAyNS4zMzMzSDM2LjMzMzNDMzUuMjI4OSAyNS4zMzMzIDM0LjUzOTcgMjUuMzMzMyAzNC4wNjMgMjUuMzA4OEMzMy45NzM4IDI1Ljc3NzMgMzMuODU1MiAyNi4xNzIxIDMzLjY5NzUgMjYuNDgxNkMzMy4xMzgzIDI3LjU3OTIgMzIuMjQ1OSAyOC40NzE2IDMxLjE0ODMgMjkuMDMwOEMzMS4wMjI2IDI5LjA5NDkgMzAuOTEzMiAyOS4xNTI1IDMwLjgxNDkgMjkuMjA0M0MzMC41ODQzIDI5LjMyNTggMzAuNDEzOSAyOS40MTU2IDMwLjIzNTMgMjkuNDgxNkMyOS43MzQ0IDI5LjY2NjYgMjkuMTY1MSAyOS42NjY2IDI3IDI5LjY2NjZIMjIuMzMzM0MyMC4xNjgzIDI5LjY2NjYgMTkuNTk5IDI5LjY2NjYgMTkuMDk4MSAyOS40ODE2QzE4LjkxOTQgMjkuNDE1NiAxOC43NDk0IDI5LjMyNiAxOC41MTg4IDI5LjIwNDVDMTguNDIwNCAyOS4xNTI3IDE4LjMxMDkgMjkuMDk1IDE4LjE4NTEgMjkuMDMwOEMxNy4wODc0IDI4LjQ3MTYgMTYuMTk1MSAyNy41NzkyIDE1LjYzNTggMjYuNDgxNkMxNS40NjAyIDI2LjEzNjkgMTUuMzMzIDI1LjY4NjUgMTUuMjQxIDI1LjE0NjFDMTUuMjM5MSAyNS4xNDY4IDE1LjIzNzIgMjUuMTQ3NiAxNS4yMzUzIDI1LjE0ODNDMTQuNzM0NCAyNS4zMzMzIDE0LjE2NTEgMjUuMzMzMyAxMiAyNS4zMzMzSDcuMzMzMzNDNS4xNjgyNSAyNS4zMzMzIDQuNTk4OTggMjUuMzMzMyA0LjA5ODA3IDI1LjE0ODNDMy45MTkzOSAyNS4wODIzIDMuNzQ5NDEgMjQuOTkyNyAzLjUxODc4IDI0Ljg3MTJDMy40MjA0MSAyNC44MTk0IDMuMzEwODggMjQuNzYxNiAzLjE4NTA2IDI0LjY5NzVDMi4wODc0NCAyNC4xMzgzIDEuMTk1MDYgMjMuMjQ1OSAwLjYzNTc5NiAyMi4xNDgzQzAgMjAuOTAwNSAwIDE4LjI2NyAwIDE1VjEwLjMzMzNaTTE1LjAzNyAyMi44MDM0QzE1LjAxOCAyMi4yNzMxIDE1LjAwODggMjEuNzA2MSAxNS4wMDQzIDIxLjEwODNDMTQuODk4OCAyMS4xNDYxIDE0Ljc4NTEgMjEuMTY2NyAxNC42NjY3IDIxLjE2NjdINC42NjY2NkM0LjExNDM3IDIxLjE2NjcgMy42NjY2NiAyMC43MTkgMy42NjY2NiAyMC4xNjY3QzMuNjY2NjYgMTkuNjE0NCA0LjExNDM3IDE5LjE2NjcgNC42NjY2NiAxOS4xNjY3SDE0LjY2NjdDMTQuNzgzNSAxOS4xNjY3IDE0Ljg5NTcgMTkuMTg2NyAxNSAxOS4yMjM2VjE3LjEwOThDMTQuODk1NyAxNy4xNDY2IDE0Ljc4MzUgMTcuMTY2NyAxNC42NjY3IDE3LjE2NjdINC42NjY2NkM0LjExNDM3IDE3LjE2NjcgMy42NjY2NiAxNi43MTkgMy42NjY2NiAxNi4xNjY3QzMuNjY2NjYgMTUuNjE0NCA0LjExNDM3IDE1LjE2NjcgNC42NjY2NiAxNS4xNjY3SDE0LjY2NjdDMTQuNzgzNSAxNS4xNjY3IDE0Ljg5NTcgMTUuMTg2NyAxNSAxNS4yMjM2VjE0LjY2NjZDMTUgMTEuMzk5NyAxNSA4Ljc2NjE5IDE1LjYzNTggNy41MTgzN0MxNS45OTE4IDYuODE5NzQgMTYuNDgyNyA2LjIwNDI2IDE3LjA3NTYgNS43MDQ4OUMxNy4wNzQ5IDUuNjk2NTMgMTcuMDc0MyA1LjY4ODI4IDE3LjA3MzYgNS42ODAxNEMxNy4wMDUyIDQuODQyNyAxNi44ODMgNC40NDIzIDE2Ljc0ODUgNC4xNzgxNkMxNi4zOTg5IDMuNDkyMTUgMTUuODQxMiAyLjkzNDQxIDE1LjE1NTIgMi41ODQ4N0MxNC44OTEgMi40NTAyOSAxNC40OTA2IDIuMzI4MTMgMTMuNjUzMiAyLjI1OTcxQzEzLjM1MzQgMi4yMzUyMSAxMy4yNjM5IDIuMjE5MDIgMTMuMjA0NyAyLjIwODMyQzEzLjA5MzYgMi4xODgyMiAxMy4wODk2IDIuMTg3NSAxMiAyLjE4NzVINy4zMzMzM0M2LjI0Mzc3IDIuMTg3NSA2LjIzOTc2IDIuMTg4MjIgNi4xMjg2MiAyLjIwODMyQzYuMDY5NDYgMi4yMTkwMiA1Ljk3OTk0IDIuMjM1MjEgNS42ODAxNCAyLjI1OTcxQzQuODQyNyAyLjMyODEzIDQuNDQyMyAyLjQ1MDI5IDQuMTc4MTYgMi41ODQ4N0MzLjQ5MjE1IDIuOTM0NDEgMi45MzQ0MSAzLjQ5MjE1IDIuNTg0ODcgNC4xNzgxNkMyLjQ1MDI5IDQuNDQyMyAyLjMyODEzIDQuODQyNyAyLjI1OTcxIDUuNjgwMTRDMi4xODkyIDYuNTQzMTIgMi4xODc1IDguNjYzNzUgMi4xODc1IDEwLjMzMzNWMTVDMi4xODc1IDE2LjY2OTYgMi4xODkyIDE4Ljc5MDIgMi4yNTk3MSAxOS42NTMyQzIuMzI4MTMgMjAuNDkwNiAyLjQ1MDI5IDIwLjg5MSAyLjU4NDg3IDIxLjE1NTJDMi45MzQ0MSAyMS44NDEyIDMuNDkyMTUgMjIuMzk4OSA0LjE3ODE2IDIyLjc0ODVDNC40NDIzIDIyLjg4MyA0Ljg0MjcgMjMuMDA1MiA1LjY4MDE0IDIzLjA3MzZDNS45Nzk5NCAyMy4wOTgxIDYuMDY5NDYgMjMuMTE0MyA2LjEyODYyIDIzLjEyNUM2LjIzOTc2IDIzLjE0NTEgNi4yNDM3NiAyMy4xNDU4IDcuMzMzMzMgMjMuMTQ1OEgxMkMxMy4wODk2IDIzLjE0NTggMTMuMDkzNiAyMy4xNDUxIDEzLjIwNDcgMjMuMTI1QzEzLjI2MzkgMjMuMTE0MyAxMy4zNTM0IDIzLjA5ODEgMTMuNjUzMiAyMy4wNzM2QzE0LjM3NDkgMjMuMDE0NyAxNC43NzIgMjIuOTE1OCAxNS4wMzcgMjIuODAzNFpNMzQuMjg3MyAyMy4wMzRDMzQuNDA2NSAyMy4wNDg2IDM0LjUzNjkgMjMuMDYxOSAzNC42ODAxIDIzLjA3MzZDMzQuOTc5OSAyMy4wOTgxIDM1LjA2OTUgMjMuMTE0MyAzNS4xMjg2IDIzLjEyNUMzNS4yMzk4IDIzLjE0NTEgMzUuMjQzOCAyMy4xNDU4IDM2LjMzMzMgMjMuMTQ1OEg0MUM0Mi4wODk2IDIzLjE0NTggNDIuMDkzNiAyMy4xNDUxIDQyLjIwNDcgMjMuMTI1QzQyLjI2MzkgMjMuMTE0MyA0Mi4zNTM0IDIzLjA5ODEgNDIuNjUzMiAyMy4wNzM2QzQzLjQ5MDYgMjMuMDA1MiA0My44OTEgMjIuODgzIDQ0LjE1NTIgMjIuNzQ4NUM0NC44NDEyIDIyLjM5ODkgNDUuMzk4OSAyMS44NDEyIDQ1Ljc0ODUgMjEuMTU1MkM0NS44ODMgMjAuODkxIDQ2LjAwNTIgMjAuNDkwNiA0Ni4wNzM2IDE5LjY1MzJDNDYuMTQ0MSAxOC43OTAyIDQ2LjE0NTggMTYuNjY5NiA0Ni4xNDU4IDE1VjEwLjMzMzNDNDYuMTQ1OCA4LjY2Mzc1IDQ2LjE0NDEgNi41NDMxMiA0Ni4wNzM2IDUuNjgwMTRDNDYuMDA1MiA0Ljg0MjcgNDUuODgzIDQuNDQyMyA0NS43NDg1IDQuMTc4MTZDNDUuMzk4OSAzLjQ5MjE1IDQ0Ljg0MTIgMi45MzQ0MSA0NC4xNTUyIDIuNTg0ODdDNDMuODkxIDIuNDUwMjkgNDMuNDkwNiAyLjMyODEzIDQyLjY1MzIgMi4yNTk3MUM0Mi4zNTM0IDIuMjM1MjEgNDIuMjYzOSAyLjIxOTAyIDQyLjIwNDcgMi4yMDgzMkM0Mi4wOTM2IDIuMTg4MjIgNDIuMDg5NiAyLjE4NzUgNDEgMi4xODc1SDM2LjMzMzNDMzUuMjQzOCAyLjE4NzUgMzUuMjM5OCAyLjE4ODIyIDM1LjEyODYgMi4yMDgzMkMzNS4wNjk1IDIuMjE5MDIgMzQuOTc5OSAyLjIzNTIxIDM0LjY4MDEgMi4yNTk3MUMzMy44NDI3IDIuMzI4MTMgMzMuNDQyMyAyLjQ1MDI5IDMzLjE3ODIgMi41ODQ4N0MzMi40OTIyIDIuOTM0NDEgMzEuOTM0NCAzLjQ5MjE1IDMxLjU4NDkgNC4xNzgxNkMzMS40ODg1IDQuMzY3MzIgMzEuMzk4NSA0LjYyNjM3IDMxLjMzIDUuMDY1NzlDMzIuMzQ0NCA1LjYyODU3IDMzLjE2OTUgNi40ODE5OCAzMy42OTc1IDcuNTE4MzdDMzQuMzMzMyA4Ljc2NjE5IDM0LjMzMzMgMTEuMzk5NyAzNC4zMzMzIDE0LjY2NjZWMTUuMTY2N0g0My42NjY3QzQ0LjIxODkgMTUuMTY2NyA0NC42NjY3IDE1LjYxNDQgNDQuNjY2NyAxNi4xNjY3QzQ0LjY2NjcgMTYuNzE5IDQ0LjIxODkgMTcuMTY2NyA0My42NjY3IDE3LjE2NjdIMzQuMzMzM1YxOS4xNjY3SDQzLjY2NjdDNDQuMjE4OSAxOS4xNjY3IDQ0LjY2NjcgMTkuNjE0NCA0NC42NjY3IDIwLjE2NjdDNDQuNjY2NyAyMC43MTkgNDQuMjE4OSAyMS4xNjY3IDQzLjY2NjcgMjEuMTY2N0gzNC4zMjg2QzM0LjMyMzMgMjEuODMwMyAzNC4zMTE4IDIyLjQ1NTQgMzQuMjg3MyAyMy4wMzRaTTMuNjY2NjYgNS4xNjY2OUMzLjY2NjY2IDQuNjE0NCA0LjExNDM3IDQuMTY2NjkgNC42NjY2NiA0LjE2NjY5SDE0LjY2NjdDMTUuMjE4OSA0LjE2NjY5IDE1LjY2NjcgNC42MTQ0IDE1LjY2NjcgNS4xNjY2OUMxNS42NjY3IDUuNzE4OTcgMTUuMjE4OSA2LjE2NjY5IDE0LjY2NjcgNi4xNjY2OUg0LjY2NjY2QzQuMTE0MzcgNi4xNjY2OSAzLjY2NjY2IDUuNzE4OTcgMy42NjY2NiA1LjE2NjY5Wk0zMi42NjY3IDUuMTY2NjlDMzIuNjY2NyA0LjYxNDQgMzMuMTE0NCA0LjE2NjY5IDMzLjY2NjcgNC4xNjY2OUg0My42NjY3QzQ0LjIxODkgNC4xNjY2OSA0NC42NjY3IDQuNjE0NCA0NC42NjY3IDUuMTY2NjlDNDQuNjY2NyA1LjcxODk3IDQ0LjIxODkgNi4xNjY2OSA0My42NjY3IDYuMTY2NjlIMzMuNjY2N0MzMy4xMTQ0IDYuMTY2NjkgMzIuNjY2NyA1LjcxODk3IDMyLjY2NjcgNS4xNjY2OVpNMjIuMzMzMyA2LjUyMDgxSDI3QzI4LjA4OTYgNi41MjA4MSAyOC4wOTM2IDYuNTIxNTQgMjguMjA0NyA2LjU0MTY0QzI4LjI2MzkgNi41NTIzNCAyOC4zNTM0IDYuNTY4NTMgMjguNjUzMiA2LjU5MzAyQzI5LjQ5MDYgNi42NjE0NCAyOS44OTEgNi43ODM2IDMwLjE1NTIgNi45MTgxOEMzMC44NDEyIDcuMjY3NzIgMzEuMzk4OSA3LjgyNTQ2IDMxLjc0ODUgOC41MTE0N0MzMS44ODMgOC43NzU2MSAzMi4wMDUyIDkuMTc2MDEgMzIuMDczNiAxMC4wMTM1QzMyLjE0NDEgMTAuODc2NCAzMi4xNDU4IDEyLjk5NzEgMzIuMTQ1OCAxNC42NjY2VjE5LjMzMzNDMzIuMTQ1OCAyMS4wMDI5IDMyLjE0NDEgMjMuMTIzNSAzMi4wNzM2IDIzLjk4NjVDMzIuMDA1MiAyNC44MjM5IDMxLjg4MyAyNS4yMjQzIDMxLjc0ODUgMjUuNDg4NUMzMS4zOTg5IDI2LjE3NDUgMzAuODQxMiAyNi43MzIyIDMwLjE1NTIgMjcuMDgxOEMyOS44OTEgMjcuMjE2NCAyOS40OTA2IDI3LjMzODUgMjguNjUzMiAyNy40MDY5QzI4LjM1MzQgMjcuNDMxNCAyOC4yNjM5IDI3LjQ0NzYgMjguMjA0NyAyNy40NTgzQzI4LjA5MzYgMjcuNDc4NCAyOC4wODk2IDI3LjQ3OTEgMjcgMjcuNDc5MUgyMi4zMzMzQzIxLjI0MzggMjcuNDc5MSAyMS4yMzk4IDI3LjQ3ODQgMjEuMTI4NiAyNy40NTgzQzIxLjA2OTUgMjcuNDQ3NiAyMC45Nzk5IDI3LjQzMTQgMjAuNjgwMSAyNy40MDY5QzE5Ljg0MjcgMjcuMzM4NSAxOS40NDIzIDI3LjIxNjQgMTkuMTc4MiAyNy4wODE4QzE4LjQ5MjIgMjYuNzMyMiAxNy45MzQ0IDI2LjE3NDUgMTcuNTg0OSAyNS40ODg1QzE3LjQ1MDMgMjUuMjI0MyAxNy4zMjgxIDI0LjgyMzkgMTcuMjU5NyAyMy45ODY1QzE3LjE4OTIgMjMuMTIzNSAxNy4xODc1IDIxLjAwMjkgMTcuMTg3NSAxOS4zMzMzVjE0LjY2NjZDMTcuMTg3NSAxMi45OTcxIDE3LjE4OTIgMTAuODc2NCAxNy4yNTk3IDEwLjAxMzVDMTcuMzI4MSA5LjE3NjAxIDE3LjQ1MDMgOC43NzU2MSAxNy41ODQ5IDguNTExNDdDMTcuOTM0NCA3LjgyNTQ2IDE4LjQ5MjIgNy4yNjc3MiAxOS4xNzgyIDYuOTE4MThDMTkuNDQyMyA2Ljc4MzYgMTkuODQyNyA2LjY2MTQ0IDIwLjY4MDEgNi41OTMwMkMyMC45Nzk5IDYuNTY4NTMgMjEuMDY5NSA2LjU1MjM0IDIxLjEyODYgNi41NDE2NEMyMS4yMzk4IDYuNTIxNTQgMjEuMjQzOCA2LjUyMDgxIDIyLjMzMzMgNi41MjA4MVpNMTguNjY2NyA5LjVDMTguNjY2NyA4Ljk0NzcyIDE5LjExNDQgOC41IDE5LjY2NjcgOC41SDI5LjY2NjdDMzAuMjE4OSA4LjUgMzAuNjY2NyA4Ljk0NzcyIDMwLjY2NjcgOS41QzMwLjY2NjcgMTAuMDUyMyAzMC4yMTg5IDEwLjUgMjkuNjY2NyAxMC41SDE5LjY2NjdDMTkuMTE0NCAxMC41IDE4LjY2NjcgMTAuMDUyMyAxOC42NjY3IDkuNVpNMTkuNjY2NyAxOS41QzE5LjExNDQgMTkuNSAxOC42NjY3IDE5Ljk0NzcgMTguNjY2NyAyMC41QzE4LjY2NjcgMjEuMDUyMyAxOS4xMTQ0IDIxLjUgMTkuNjY2NyAyMS41SDI5LjY2NjdDMzAuMjE4OSAyMS41IDMwLjY2NjcgMjEuMDUyMyAzMC42NjY3IDIwLjVDMzAuNjY2NyAxOS45NDc3IDMwLjIxODkgMTkuNSAyOS42NjY3IDE5LjVIMTkuNjY2N1pNMTguNjY2NyAyNC41QzE4LjY2NjcgMjMuOTQ3NyAxOS4xMTQ0IDIzLjUgMTkuNjY2NyAyMy41SDI5LjY2NjdDMzAuMjE4OSAyMy41IDMwLjY2NjcgMjMuOTQ3NyAzMC42NjY3IDI0LjVDMzAuNjY2NyAyNS4wNTIzIDMwLjIxODkgMjUuNSAyOS42NjY3IDI1LjVIMTkuNjY2N0MxOS4xMTQ0IDI1LjUgMTguNjY2NyAyNS4wNTIzIDE4LjY2NjcgMjQuNVoiIGNsaXAtcnVsZT0iZXZlbm9kZCIgZmlsbC1ydWxlPSJldmVub2RkIi8+JiN4YTs8L3N2Zz4=;fontFamily=VK Sans Display;fontSource=https://fonts.googleapis.com/css?family=Architects+Daughter;fontSize=20;spacingTop=0;labelPosition=center;align=center;" vertex="1" parent="1">
          <mxGeometry x="564" y="260" width="65.3" height="40" as="geometry" />
        </mxCell>
        <mxCell id="l8OaLnw3HOuMR9vGeQDa-6" value="Advanced router&amp;nbsp;" style="shape=image;verticalLabelPosition=bottom;labelBackgroundColor=none;verticalAlign=top;aspect=fixed;imageAspect=0;image=data:image/svg+xml,PHN2ZyB4bWxucz0iaHR0cDovL3d3dy53My5vcmcvMjAwMC9zdmciIGZpbGw9Im5vbmUiIHZpZXdCb3g9IjAgMCAzMiAzMiIgaGVpZ2h0PSIzMiIgd2lkdGg9IjMyIj4mI3hhOzxwYXRoIGZpbGw9IiMwMDc3RkYiIGQ9Ik0zLjMxNDI4IDE2QzMuMzE0MjggOC45OTM4NyA4Ljk5Mzg3IDMuMzE0MjggMTYgMy4zMTQyOEMyMy4wMDYxIDMuMzE0MjggMjguNjg1NyA4Ljk5Mzg3IDI4LjY4NTcgMTZDMjguNjg1NyAyMy4wMDYxIDIzLjAwNjEgMjguNjg1NyAxNiAyOC42ODU3QzguOTkzODcgMjguNjg1NyAzLjMxNDI4IDIzLjAwNjEgMy4zMTQyOCAxNlpNMTYgMS4yNTcxNEM3Ljg1Nzc0IDEuMjU3MTQgMS4yNTcxNCA3Ljg1Nzc0IDEuMjU3MTQgMTZDMS4yNTcxNCAyNC4xNDIzIDcuODU3NzQgMzAuNzQyOSAxNiAzMC43NDI5QzI0LjE0MjMgMzAuNzQyOSAzMC43NDI5IDI0LjE0MjMgMzAuNzQyOSAxNkMzMC43NDI5IDcuODU3NzQgMjQuMTQyMyAxLjI1NzE0IDE2IDEuMjU3MTRaTTE5LjUxNzMgNy4zMjYyNUMxOS44NzQzIDcuNjYxMSAxOS44ODgxIDguMjE3NTYgMTkuNTQ4MSA4LjU2OTE1QzE5LjIwOCA4LjkyMDczIDE4LjY0MjggOC45MzQzMSAxOC4yODU3IDguNTk5NDZMMTYuODkyOSA3LjUwMTgzVjE4LjkzMDRMMTYuODkyOCAxOC45MzlWMjQuNDk4MkwxOC4yODU3IDIzLjQwMDVDMTguNjQyOCAyMy4wNjU3IDE5LjIwOCAyMy4wNzkzIDE5LjU0OCAyMy40MzA5QzE5Ljg4ODEgMjMuNzgyNCAxOS44NzQzIDI0LjMzODkgMTkuNTE3MyAyNC42NzM3TDE2LjYxNTggMjcuMTg2MUMxNi4yNzA5IDI3LjUwOTQgMTUuNzI5MSAyNy41MDk0IDE1LjM4NDIgMjcuMTg2MUwxMi40ODI4IDI0LjY3MzdDMTIuMTI1NyAyNC4zMzg5IDEyLjExMTkgMjMuNzgyNCAxMi40NTIgMjMuNDMwOUMxMi43OTIgMjMuMDc5MyAxMy4zNTcyIDIzLjA2NTcgMTMuNzE0MyAyMy40MDA1TDE1LjEwNzEgMjQuNDk4MkwxNS4xMDcxIDEzLjA2OTZMMTUuMTA3MiAxMy4wNjA5VjcuNTAxODNMMTMuNzE0MyA4LjU5OTQ2QzEzLjM1NzIgOC45MzQzMSAxMi43OTIgOC45MjA3MyAxMi40NTIgOC41NjkxNUMxMi4xMTE5IDguMjE3NTYgMTIuMTI1NyA3LjY2MTEgMTIuNDgyOCA3LjMyNjI1TDE1LjM4NDMgNC44MTM5NUMxNS43MjkxIDQuNDkwNTkgMTYuMjcxIDQuNDkwNTkgMTYuNjE1OCA0LjgxMzk1TDE5LjUxNzMgNy4zMjYyNVpNMTAuMDk3NSAxOS45MTM4QzEwLjQ0OTEgMjAuMjUzOSAxMS4wMDU2IDIwLjI0MDEgMTEuMzQwNCAxOS44ODNMMTMuODUyNyAxNi45ODE2QzE0LjE3NjEgMTYuNjM2NyAxNC4xNzYxIDE2LjA5NDkgMTMuODUyNyAxNS43NUwxMS4zNDA0IDEyLjg0ODVDMTEuMDA1NiAxMi40OTE0IDEwLjQ0OTEgMTIuNDc3NyAxMC4wOTc1IDEyLjgxNzdDOS43NDU5NCAxMy4xNTc4IDkuNzMyMzYgMTMuNzIzIDEwLjA2NzIgMTQuMDgwMUwxMS4xNjQ4IDE1LjQ3MjlINS40NTA1NEM0Ljk2NTAyIDE1LjQ3MjkgNC41NzE0MiAxNS44NzI3IDQuNTcxNDIgMTYuMzY1OEM0LjU3MTQyIDE2Ljg1ODkgNC45NjUwMSAxNy4yNTg3IDUuNDUwNTQgMTcuMjU4N0wxMS4xNjQ4IDE3LjI1ODdMMTAuMDY3MiAxOC42NTE1QzkuNzMyMzYgMTkuMDA4NiA5Ljc0NTk0IDE5LjU3MzcgMTAuMDk3NSAxOS45MTM4Wk0yMC42NjM0IDEyLjg0ODVDMjAuOTk4MiAxMi40OTE0IDIxLjU1NDcgMTIuNDc3NyAyMS45MDYzIDEyLjgxNzdDMjIuMjU3OSAxMy4xNTc4IDIyLjI3MTUgMTMuNzIzIDIxLjkzNjYgMTQuMDhMMjAuODM5IDE1LjQ3MjlIMjYuNTUzM0MyNy4wMzg4IDE1LjQ3MjkgMjcuNDMyNCAxNS44NzI2IDI3LjQzMjQgMTYuMzY1OEMyNy40MzI0IDE2Ljg1ODkgMjcuMDM4OCAxNy4yNTg2IDI2LjU1MzMgMTcuMjU4NkgyMC44MzlMMjEuOTM2NiAxOC42NTE1QzIyLjI3MTUgMTkuMDA4NiAyMi4yNTc5IDE5LjU3MzcgMjEuOTA2MyAxOS45MTM4QzIxLjU1NDcgMjAuMjUzOSAyMC45OTgyIDIwLjI0MDEgMjAuNjYzNCAxOS44ODNMMTguMTUxMSAxNi45ODE1QzE3LjgyNzcgMTYuNjM2NyAxNy44Mjc3IDE2LjA5NDggMTguMTUxMSAxNS43NUwyMC42NjM0IDEyLjg0ODVaIiBjbGlwLXJ1bGU9ImV2ZW5vZGQiIGZpbGwtcnVsZT0iZXZlbm9kZCIvPiYjeGE7PC9zdmc+;fontSize=20;fontFamily=VK Sans Display;fontSource=https://fonts.googleapis.com/css?family=Architects+Daughter;html=1;" vertex="1" parent="1">
          <mxGeometry x="101" y="260" width="40" height="40" as="geometry" />
        </mxCell>
        <mxCell id="l8OaLnw3HOuMR9vGeQDa-7" value="Servers" style="shape=image;verticalLabelPosition=bottom;labelBackgroundColor=none;verticalAlign=top;aspect=fixed;imageAspect=0;image=data:image/svg+xml,PHN2ZyB4bWxucz0iaHR0cDovL3d3dy53My5vcmcvMjAwMC9zdmciIGZpbGw9Im5vbmUiIHZpZXdCb3g9IjAgMCA0OSAzMCIgaGVpZ2h0PSIzMCIgd2lkdGg9IjQ5Ij4mI3hhOzxwYXRoIGZpbGw9IiMwMDc3RkYiIGQ9Ik0wIDEwLjMzMzNDMCA3LjA2NjM2IDAgNC40MzI4NyAwLjYzNTc5NiAzLjE4NTA2QzEuMTk1MDYgMi4wODc0NCAyLjA4NzQ0IDEuMTk1MDYgMy4xODUwNiAwLjYzNTc5NUMzLjMxMDkyIDAuNTcxNjYyIDMuNDIwMzcgMC41MTM5OTggMy41MTg3NyAwLjQ2MjE1QzMuNzQ5NCAwLjM0MDYzNSAzLjkxOTM5IDAuMjUxMDcxIDQuMDk4MDcgMC4xODUwNTZDNC41OTg5OCAwIDUuMTY4MjUgMCA3LjMzMzMzIDBIMTJDMTQuMTY1MSAwIDE0LjczNDQgMCAxNS4yMzUzIDAuMTg1MDU2QzE1LjQxMzkgMC4yNTEwNzEgMTUuNTgzOSAwLjM0MDYzNSAxNS44MTQ2IDAuNDYyMTVDMTUuOTEyOSAwLjUxMzk4OCAxNi4wMjI0IDAuNTcxNjc3IDE2LjE0ODMgMC42MzU3OTVDMTcuMjQ1OSAxLjE5NTA2IDE4LjEzODMgMi4wODc0NCAxOC42OTc1IDMuMTg1MDZDMTguODczMiAzLjUyOTc2IDE5LjAwMDMgMy45ODAyIDE5LjA5MjMgNC41MjA1MkMxOS4wOTQyIDQuNTE5OCAxOS4wOTYxIDQuNTE5MDggMTkuMDk4MSA0LjUxODM3QzE5LjU5OSA0LjMzMzMxIDIwLjE2ODMgNC4zMzMzMSAyMi4zMzMzIDQuMzMzMzFIMjdDMjguMTA0NSA0LjMzMzMxIDI4Ljc5MzYgNC4zMzMzMSAyOS4yNzAzIDQuMzU3ODhDMjkuMzU5NSAzLjg4OTM0IDI5LjQ3ODEgMy40OTQ1NyAyOS42MzU4IDMuMTg1MDZDMzAuMTk1MSAyLjA4NzQ0IDMxLjA4NzQgMS4xOTUwNiAzMi4xODUxIDAuNjM1Nzk1QzMyLjMxMDkgMC41NzE2NjIgMzIuNDIwNCAwLjUxMzk5OCAzMi41MTg4IDAuNDYyMTVDMzIuNzQ5NCAwLjM0MDYzNSAzMi45MTk0IDAuMjUxMDcxIDMzLjA5ODEgMC4xODUwNTZDMzMuNTk5IDAgMzQuMTY4MyAwIDM2LjMzMzMgMEg0MUM0My4xNjUxIDAgNDMuNzM0NCAwIDQ0LjIzNTMgMC4xODUwNTZDNDQuNDEzOSAwLjI1MTA3MSA0NC41ODM5IDAuMzQwNjM1IDQ0LjgxNDYgMC40NjIxNUM0NC45MTI5IDAuNTEzOTg4IDQ1LjAyMjQgMC41NzE2NzcgNDUuMTQ4MyAwLjYzNTc5NUM0Ni4yNDU5IDEuMTk1MDYgNDcuMTM4MyAyLjA4NzQ0IDQ3LjY5NzUgMy4xODUwNkM0OC4zMzMzIDQuNDMyODcgNDguMzMzMyA3LjA2NjM2IDQ4LjMzMzMgMTAuMzMzM1YxNUM0OC4zMzMzIDE4LjI2NyA0OC4zMzMzIDIwLjkwMDUgNDcuNjk3NSAyMi4xNDgzQzQ3LjEzODMgMjMuMjQ1OSA0Ni4yNDU5IDI0LjEzODMgNDUuMTQ4MyAyNC42OTc1QzQ1LjAyMjcgMjQuNzYxNSA0NC45MTM1IDI0LjgxOSA0NC44MTUzIDI0Ljg3MDhDNDQuNTg0NyAyNC45OTIzIDQ0LjQxMzkgMjUuMDgyMyA0NC4yMzUzIDI1LjE0ODNDNDMuNzM0NCAyNS4zMzMzIDQzLjE2NTEgMjUuMzMzMyA0MSAyNS4zMzMzSDM2LjMzMzNDMzUuMjI4OSAyNS4zMzMzIDM0LjUzOTcgMjUuMzMzMyAzNC4wNjMgMjUuMzA4OEMzMy45NzM4IDI1Ljc3NzMgMzMuODU1MiAyNi4xNzIxIDMzLjY5NzUgMjYuNDgxNkMzMy4xMzgzIDI3LjU3OTIgMzIuMjQ1OSAyOC40NzE2IDMxLjE0ODMgMjkuMDMwOEMzMS4wMjI2IDI5LjA5NDkgMzAuOTEzMiAyOS4xNTI1IDMwLjgxNDkgMjkuMjA0M0MzMC41ODQzIDI5LjMyNTggMzAuNDEzOSAyOS40MTU2IDMwLjIzNTMgMjkuNDgxNkMyOS43MzQ0IDI5LjY2NjYgMjkuMTY1MSAyOS42NjY2IDI3IDI5LjY2NjZIMjIuMzMzM0MyMC4xNjgzIDI5LjY2NjYgMTkuNTk5IDI5LjY2NjYgMTkuMDk4MSAyOS40ODE2QzE4LjkxOTQgMjkuNDE1NiAxOC43NDk0IDI5LjMyNiAxOC41MTg4IDI5LjIwNDVDMTguNDIwNCAyOS4xNTI3IDE4LjMxMDkgMjkuMDk1IDE4LjE4NTEgMjkuMDMwOEMxNy4wODc0IDI4LjQ3MTYgMTYuMTk1MSAyNy41NzkyIDE1LjYzNTggMjYuNDgxNkMxNS40NjAyIDI2LjEzNjkgMTUuMzMzIDI1LjY4NjUgMTUuMjQxIDI1LjE0NjFDMTUuMjM5MSAyNS4xNDY4IDE1LjIzNzIgMjUuMTQ3NiAxNS4yMzUzIDI1LjE0ODNDMTQuNzM0NCAyNS4zMzMzIDE0LjE2NTEgMjUuMzMzMyAxMiAyNS4zMzMzSDcuMzMzMzNDNS4xNjgyNSAyNS4zMzMzIDQuNTk4OTggMjUuMzMzMyA0LjA5ODA3IDI1LjE0ODNDMy45MTkzOSAyNS4wODIzIDMuNzQ5NDEgMjQuOTkyNyAzLjUxODc4IDI0Ljg3MTJDMy40MjA0MSAyNC44MTk0IDMuMzEwODggMjQuNzYxNiAzLjE4NTA2IDI0LjY5NzVDMi4wODc0NCAyNC4xMzgzIDEuMTk1MDYgMjMuMjQ1OSAwLjYzNTc5NiAyMi4xNDgzQzAgMjAuOTAwNSAwIDE4LjI2NyAwIDE1VjEwLjMzMzNaTTE1LjAzNyAyMi44MDM0QzE1LjAxOCAyMi4yNzMxIDE1LjAwODggMjEuNzA2MSAxNS4wMDQzIDIxLjEwODNDMTQuODk4OCAyMS4xNDYxIDE0Ljc4NTEgMjEuMTY2NyAxNC42NjY3IDIxLjE2NjdINC42NjY2NkM0LjExNDM3IDIxLjE2NjcgMy42NjY2NiAyMC43MTkgMy42NjY2NiAyMC4xNjY3QzMuNjY2NjYgMTkuNjE0NCA0LjExNDM3IDE5LjE2NjcgNC42NjY2NiAxOS4xNjY3SDE0LjY2NjdDMTQuNzgzNSAxOS4xNjY3IDE0Ljg5NTcgMTkuMTg2NyAxNSAxOS4yMjM2VjE3LjEwOThDMTQuODk1NyAxNy4xNDY2IDE0Ljc4MzUgMTcuMTY2NyAxNC42NjY3IDE3LjE2NjdINC42NjY2NkM0LjExNDM3IDE3LjE2NjcgMy42NjY2NiAxNi43MTkgMy42NjY2NiAxNi4xNjY3QzMuNjY2NjYgMTUuNjE0NCA0LjExNDM3IDE1LjE2NjcgNC42NjY2NiAxNS4xNjY3SDE0LjY2NjdDMTQuNzgzNSAxNS4xNjY3IDE0Ljg5NTcgMTUuMTg2NyAxNSAxNS4yMjM2VjE0LjY2NjZDMTUgMTEuMzk5NyAxNSA4Ljc2NjE5IDE1LjYzNTggNy41MTgzN0MxNS45OTE4IDYuODE5NzQgMTYuNDgyNyA2LjIwNDI2IDE3LjA3NTYgNS43MDQ4OUMxNy4wNzQ5IDUuNjk2NTMgMTcuMDc0MyA1LjY4ODI4IDE3LjA3MzYgNS42ODAxNEMxNy4wMDUyIDQuODQyNyAxNi44ODMgNC40NDIzIDE2Ljc0ODUgNC4xNzgxNkMxNi4zOTg5IDMuNDkyMTUgMTUuODQxMiAyLjkzNDQxIDE1LjE1NTIgMi41ODQ4N0MxNC44OTEgMi40NTAyOSAxNC40OTA2IDIuMzI4MTMgMTMuNjUzMiAyLjI1OTcxQzEzLjM1MzQgMi4yMzUyMSAxMy4yNjM5IDIuMjE5MDIgMTMuMjA0NyAyLjIwODMyQzEzLjA5MzYgMi4xODgyMiAxMy4wODk2IDIuMTg3NSAxMiAyLjE4NzVINy4zMzMzM0M2LjI0Mzc3IDIuMTg3NSA2LjIzOTc2IDIuMTg4MjIgNi4xMjg2MiAyLjIwODMyQzYuMDY5NDYgMi4yMTkwMiA1Ljk3OTk0IDIuMjM1MjEgNS42ODAxNCAyLjI1OTcxQzQuODQyNyAyLjMyODEzIDQuNDQyMyAyLjQ1MDI5IDQuMTc4MTYgMi41ODQ4N0MzLjQ5MjE1IDIuOTM0NDEgMi45MzQ0MSAzLjQ5MjE1IDIuNTg0ODcgNC4xNzgxNkMyLjQ1MDI5IDQuNDQyMyAyLjMyODEzIDQuODQyNyAyLjI1OTcxIDUuNjgwMTRDMi4xODkyIDYuNTQzMTIgMi4xODc1IDguNjYzNzUgMi4xODc1IDEwLjMzMzNWMTVDMi4xODc1IDE2LjY2OTYgMi4xODkyIDE4Ljc5MDIgMi4yNTk3MSAxOS42NTMyQzIuMzI4MTMgMjAuNDkwNiAyLjQ1MDI5IDIwLjg5MSAyLjU4NDg3IDIxLjE1NTJDMi45MzQ0MSAyMS44NDEyIDMuNDkyMTUgMjIuMzk4OSA0LjE3ODE2IDIyLjc0ODVDNC40NDIzIDIyLjg4MyA0Ljg0MjcgMjMuMDA1MiA1LjY4MDE0IDIzLjA3MzZDNS45Nzk5NCAyMy4wOTgxIDYuMDY5NDYgMjMuMTE0MyA2LjEyODYyIDIzLjEyNUM2LjIzOTc2IDIzLjE0NTEgNi4yNDM3NiAyMy4xNDU4IDcuMzMzMzMgMjMuMTQ1OEgxMkMxMy4wODk2IDIzLjE0NTggMTMuMDkzNiAyMy4xNDUxIDEzLjIwNDcgMjMuMTI1QzEzLjI2MzkgMjMuMTE0MyAxMy4zNTM0IDIzLjA5ODEgMTMuNjUzMiAyMy4wNzM2QzE0LjM3NDkgMjMuMDE0NyAxNC43NzIgMjIuOTE1OCAxNS4wMzcgMjIuODAzNFpNMzQuMjg3MyAyMy4wMzRDMzQuNDA2NSAyMy4wNDg2IDM0LjUzNjkgMjMuMDYxOSAzNC42ODAxIDIzLjA3MzZDMzQuOTc5OSAyMy4wOTgxIDM1LjA2OTUgMjMuMTE0MyAzNS4xMjg2IDIzLjEyNUMzNS4yMzk4IDIzLjE0NTEgMzUuMjQzOCAyMy4xNDU4IDM2LjMzMzMgMjMuMTQ1OEg0MUM0Mi4wODk2IDIzLjE0NTggNDIuMDkzNiAyMy4xNDUxIDQyLjIwNDcgMjMuMTI1QzQyLjI2MzkgMjMuMTE0MyA0Mi4zNTM0IDIzLjA5ODEgNDIuNjUzMiAyMy4wNzM2QzQzLjQ5MDYgMjMuMDA1MiA0My44OTEgMjIuODgzIDQ0LjE1NTIgMjIuNzQ4NUM0NC44NDEyIDIyLjM5ODkgNDUuMzk4OSAyMS44NDEyIDQ1Ljc0ODUgMjEuMTU1MkM0NS44ODMgMjAuODkxIDQ2LjAwNTIgMjAuNDkwNiA0Ni4wNzM2IDE5LjY1MzJDNDYuMTQ0MSAxOC43OTAyIDQ2LjE0NTggMTYuNjY5NiA0Ni4xNDU4IDE1VjEwLjMzMzNDNDYuMTQ1OCA4LjY2Mzc1IDQ2LjE0NDEgNi41NDMxMiA0Ni4wNzM2IDUuNjgwMTRDNDYuMDA1MiA0Ljg0MjcgNDUuODgzIDQuNDQyMyA0NS43NDg1IDQuMTc4MTZDNDUuMzk4OSAzLjQ5MjE1IDQ0Ljg0MTIgMi45MzQ0MSA0NC4xNTUyIDIuNTg0ODdDNDMuODkxIDIuNDUwMjkgNDMuNDkwNiAyLjMyODEzIDQyLjY1MzIgMi4yNTk3MUM0Mi4zNTM0IDIuMjM1MjEgNDIuMjYzOSAyLjIxOTAyIDQyLjIwNDcgMi4yMDgzMkM0Mi4wOTM2IDIuMTg4MjIgNDIuMDg5NiAyLjE4NzUgNDEgMi4xODc1SDM2LjMzMzNDMzUuMjQzOCAyLjE4NzUgMzUuMjM5OCAyLjE4ODIyIDM1LjEyODYgMi4yMDgzMkMzNS4wNjk1IDIuMjE5MDIgMzQuOTc5OSAyLjIzNTIxIDM0LjY4MDEgMi4yNTk3MUMzMy44NDI3IDIuMzI4MTMgMzMuNDQyMyAyLjQ1MDI5IDMzLjE3ODIgMi41ODQ4N0MzMi40OTIyIDIuOTM0NDEgMzEuOTM0NCAzLjQ5MjE1IDMxLjU4NDkgNC4xNzgxNkMzMS40ODg1IDQuMzY3MzIgMzEuMzk4NSA0LjYyNjM3IDMxLjMzIDUuMDY1NzlDMzIuMzQ0NCA1LjYyODU3IDMzLjE2OTUgNi40ODE5OCAzMy42OTc1IDcuNTE4MzdDMzQuMzMzMyA4Ljc2NjE5IDM0LjMzMzMgMTEuMzk5NyAzNC4zMzMzIDE0LjY2NjZWMTUuMTY2N0g0My42NjY3QzQ0LjIxODkgMTUuMTY2NyA0NC42NjY3IDE1LjYxNDQgNDQuNjY2NyAxNi4xNjY3QzQ0LjY2NjcgMTYuNzE5IDQ0LjIxODkgMTcuMTY2NyA0My42NjY3IDE3LjE2NjdIMzQuMzMzM1YxOS4xNjY3SDQzLjY2NjdDNDQuMjE4OSAxOS4xNjY3IDQ0LjY2NjcgMTkuNjE0NCA0NC42NjY3IDIwLjE2NjdDNDQuNjY2NyAyMC43MTkgNDQuMjE4OSAyMS4xNjY3IDQzLjY2NjcgMjEuMTY2N0gzNC4zMjg2QzM0LjMyMzMgMjEuODMwMyAzNC4zMTE4IDIyLjQ1NTQgMzQuMjg3MyAyMy4wMzRaTTMuNjY2NjYgNS4xNjY2OUMzLjY2NjY2IDQuNjE0NCA0LjExNDM3IDQuMTY2NjkgNC42NjY2NiA0LjE2NjY5SDE0LjY2NjdDMTUuMjE4OSA0LjE2NjY5IDE1LjY2NjcgNC42MTQ0IDE1LjY2NjcgNS4xNjY2OUMxNS42NjY3IDUuNzE4OTcgMTUuMjE4OSA2LjE2NjY5IDE0LjY2NjcgNi4xNjY2OUg0LjY2NjY2QzQuMTE0MzcgNi4xNjY2OSAzLjY2NjY2IDUuNzE4OTcgMy42NjY2NiA1LjE2NjY5Wk0zMi42NjY3IDUuMTY2NjlDMzIuNjY2NyA0LjYxNDQgMzMuMTE0NCA0LjE2NjY5IDMzLjY2NjcgNC4xNjY2OUg0My42NjY3QzQ0LjIxODkgNC4xNjY2OSA0NC42NjY3IDQuNjE0NCA0NC42NjY3IDUuMTY2NjlDNDQuNjY2NyA1LjcxODk3IDQ0LjIxODkgNi4xNjY2OSA0My42NjY3IDYuMTY2NjlIMzMuNjY2N0MzMy4xMTQ0IDYuMTY2NjkgMzIuNjY2NyA1LjcxODk3IDMyLjY2NjcgNS4xNjY2OVpNMjIuMzMzMyA2LjUyMDgxSDI3QzI4LjA4OTYgNi41MjA4MSAyOC4wOTM2IDYuNTIxNTQgMjguMjA0NyA2LjU0MTY0QzI4LjI2MzkgNi41NTIzNCAyOC4zNTM0IDYuNTY4NTMgMjguNjUzMiA2LjU5MzAyQzI5LjQ5MDYgNi42NjE0NCAyOS44OTEgNi43ODM2IDMwLjE1NTIgNi45MTgxOEMzMC44NDEyIDcuMjY3NzIgMzEuMzk4OSA3LjgyNTQ2IDMxLjc0ODUgOC41MTE0N0MzMS44ODMgOC43NzU2MSAzMi4wMDUyIDkuMTc2MDEgMzIuMDczNiAxMC4wMTM1QzMyLjE0NDEgMTAuODc2NCAzMi4xNDU4IDEyLjk5NzEgMzIuMTQ1OCAxNC42NjY2VjE5LjMzMzNDMzIuMTQ1OCAyMS4wMDI5IDMyLjE0NDEgMjMuMTIzNSAzMi4wNzM2IDIzLjk4NjVDMzIuMDA1MiAyNC44MjM5IDMxLjg4MyAyNS4yMjQzIDMxLjc0ODUgMjUuNDg4NUMzMS4zOTg5IDI2LjE3NDUgMzAuODQxMiAyNi43MzIyIDMwLjE1NTIgMjcuMDgxOEMyOS44OTEgMjcuMjE2NCAyOS40OTA2IDI3LjMzODUgMjguNjUzMiAyNy40MDY5QzI4LjM1MzQgMjcuNDMxNCAyOC4yNjM5IDI3LjQ0NzYgMjguMjA0NyAyNy40NTgzQzI4LjA5MzYgMjcuNDc4NCAyOC4wODk2IDI3LjQ3OTEgMjcgMjcuNDc5MUgyMi4zMzMzQzIxLjI0MzggMjcuNDc5MSAyMS4yMzk4IDI3LjQ3ODQgMjEuMTI4NiAyNy40NTgzQzIxLjA2OTUgMjcuNDQ3NiAyMC45Nzk5IDI3LjQzMTQgMjAuNjgwMSAyNy40MDY5QzE5Ljg0MjcgMjcuMzM4NSAxOS40NDIzIDI3LjIxNjQgMTkuMTc4MiAyNy4wODE4QzE4LjQ5MjIgMjYuNzMyMiAxNy45MzQ0IDI2LjE3NDUgMTcuNTg0OSAyNS40ODg1QzE3LjQ1MDMgMjUuMjI0MyAxNy4zMjgxIDI0LjgyMzkgMTcuMjU5NyAyMy45ODY1QzE3LjE4OTIgMjMuMTIzNSAxNy4xODc1IDIxLjAwMjkgMTcuMTg3NSAxOS4zMzMzVjE0LjY2NjZDMTcuMTg3NSAxMi45OTcxIDE3LjE4OTIgMTAuODc2NCAxNy4yNTk3IDEwLjAxMzVDMTcuMzI4MSA5LjE3NjAxIDE3LjQ1MDMgOC43NzU2MSAxNy41ODQ5IDguNTExNDdDMTcuOTM0NCA3LjgyNTQ2IDE4LjQ5MjIgNy4yNjc3MiAxOS4xNzgyIDYuOTE4MThDMTkuNDQyMyA2Ljc4MzYgMTkuODQyNyA2LjY2MTQ0IDIwLjY4MDEgNi41OTMwMkMyMC45Nzk5IDYuNTY4NTMgMjEuMDY5NSA2LjU1MjM0IDIxLjEyODYgNi41NDE2NEMyMS4yMzk4IDYuNTIxNTQgMjEuMjQzOCA2LjUyMDgxIDIyLjMzMzMgNi41MjA4MVpNMTguNjY2NyA5LjVDMTguNjY2NyA4Ljk0NzcyIDE5LjExNDQgOC41IDE5LjY2NjcgOC41SDI5LjY2NjdDMzAuMjE4OSA4LjUgMzAuNjY2NyA4Ljk0NzcyIDMwLjY2NjcgOS41QzMwLjY2NjcgMTAuMDUyMyAzMC4yMTg5IDEwLjUgMjkuNjY2NyAxMC41SDE5LjY2NjdDMTkuMTE0NCAxMC41IDE4LjY2NjcgMTAuMDUyMyAxOC42NjY3IDkuNVpNMTkuNjY2NyAxOS41QzE5LjExNDQgMTkuNSAxOC42NjY3IDE5Ljk0NzcgMTguNjY2NyAyMC41QzE4LjY2NjcgMjEuMDUyMyAxOS4xMTQ0IDIxLjUgMTkuNjY2NyAyMS41SDI5LjY2NjdDMzAuMjE4OSAyMS41IDMwLjY2NjcgMjEuMDUyMyAzMC42NjY3IDIwLjVDMzAuNjY2NyAxOS45NDc3IDMwLjIxODkgMTkuNSAyOS42NjY3IDE5LjVIMTkuNjY2N1pNMTguNjY2NyAyNC41QzE4LjY2NjcgMjMuOTQ3NyAxOS4xMTQ0IDIzLjUgMTkuNjY2NyAyMy41SDI5LjY2NjdDMzAuMjE4OSAyMy41IDMwLjY2NjcgMjMuOTQ3NyAzMC42NjY3IDI0LjVDMzAuNjY2NyAyNS4wNTIzIDMwLjIxODkgMjUuNSAyOS42NjY3IDI1LjVIMTkuNjY2N0MxOS4xMTQ0IDI1LjUgMTguNjY2NyAyNS4wNTIzIDE4LjY2NjcgMjQuNVoiIGNsaXAtcnVsZT0iZXZlbm9kZCIgZmlsbC1ydWxlPSJldmVub2RkIi8+JiN4YTs8L3N2Zz4=;fontFamily=VK Sans Display;fontSource=https://fonts.googleapis.com/css?family=Architects+Daughter;fontSize=20;spacingTop=0;labelPosition=center;align=center;" vertex="1" parent="1">
          <mxGeometry x="-767" y="262" width="65.3" height="40" as="geometry" />
        </mxCell>
        <mxCell id="l8OaLnw3HOuMR9vGeQDa-8" value="Client router" style="shape=image;verticalLabelPosition=bottom;labelBackgroundColor=none;verticalAlign=top;aspect=fixed;imageAspect=0;image=data:image/svg+xml,PHN2ZyB4bWxucz0iaHR0cDovL3d3dy53My5vcmcvMjAwMC9zdmciIGZpbGw9Im5vbmUiIHZpZXdCb3g9IjAgMCAzMiAzMiIgaGVpZ2h0PSIzMiIgd2lkdGg9IjMyIj4mI3hhOzxwYXRoIGZpbGw9IiMwMDc3RkYiIGQ9Ik0zLjMxNDI4IDE2QzMuMzE0MjggOC45OTM4NyA4Ljk5Mzg3IDMuMzE0MjggMTYgMy4zMTQyOEMyMy4wMDYxIDMuMzE0MjggMjguNjg1NyA4Ljk5Mzg3IDI4LjY4NTcgMTZDMjguNjg1NyAyMy4wMDYxIDIzLjAwNjEgMjguNjg1NyAxNiAyOC42ODU3QzguOTkzODcgMjguNjg1NyAzLjMxNDI4IDIzLjAwNjEgMy4zMTQyOCAxNlpNMTYgMS4yNTcxNEM3Ljg1Nzc0IDEuMjU3MTQgMS4yNTcxNCA3Ljg1Nzc0IDEuMjU3MTQgMTZDMS4yNTcxNCAyNC4xNDIzIDcuODU3NzQgMzAuNzQyOSAxNiAzMC43NDI5QzI0LjE0MjMgMzAuNzQyOSAzMC43NDI5IDI0LjE0MjMgMzAuNzQyOSAxNkMzMC43NDI5IDcuODU3NzQgMjQuMTQyMyAxLjI1NzE0IDE2IDEuMjU3MTRaTTE5LjUxNzMgNy4zMjYyNUMxOS44NzQzIDcuNjYxMSAxOS44ODgxIDguMjE3NTYgMTkuNTQ4MSA4LjU2OTE1QzE5LjIwOCA4LjkyMDczIDE4LjY0MjggOC45MzQzMSAxOC4yODU3IDguNTk5NDZMMTYuODkyOSA3LjUwMTgzVjE4LjkzMDRMMTYuODkyOCAxOC45MzlWMjQuNDk4MkwxOC4yODU3IDIzLjQwMDVDMTguNjQyOCAyMy4wNjU3IDE5LjIwOCAyMy4wNzkzIDE5LjU0OCAyMy40MzA5QzE5Ljg4ODEgMjMuNzgyNCAxOS44NzQzIDI0LjMzODkgMTkuNTE3MyAyNC42NzM3TDE2LjYxNTggMjcuMTg2MUMxNi4yNzA5IDI3LjUwOTQgMTUuNzI5MSAyNy41MDk0IDE1LjM4NDIgMjcuMTg2MUwxMi40ODI4IDI0LjY3MzdDMTIuMTI1NyAyNC4zMzg5IDEyLjExMTkgMjMuNzgyNCAxMi40NTIgMjMuNDMwOUMxMi43OTIgMjMuMDc5MyAxMy4zNTcyIDIzLjA2NTcgMTMuNzE0MyAyMy40MDA1TDE1LjEwNzEgMjQuNDk4MkwxNS4xMDcxIDEzLjA2OTZMMTUuMTA3MiAxMy4wNjA5VjcuNTAxODNMMTMuNzE0MyA4LjU5OTQ2QzEzLjM1NzIgOC45MzQzMSAxMi43OTIgOC45MjA3MyAxMi40NTIgOC41NjkxNUMxMi4xMTE5IDguMjE3NTYgMTIuMTI1NyA3LjY2MTEgMTIuNDgyOCA3LjMyNjI1TDE1LjM4NDMgNC44MTM5NUMxNS43MjkxIDQuNDkwNTkgMTYuMjcxIDQuNDkwNTkgMTYuNjE1OCA0LjgxMzk1TDE5LjUxNzMgNy4zMjYyNVpNMTAuMDk3NSAxOS45MTM4QzEwLjQ0OTEgMjAuMjUzOSAxMS4wMDU2IDIwLjI0MDEgMTEuMzQwNCAxOS44ODNMMTMuODUyNyAxNi45ODE2QzE0LjE3NjEgMTYuNjM2NyAxNC4xNzYxIDE2LjA5NDkgMTMuODUyNyAxNS43NUwxMS4zNDA0IDEyLjg0ODVDMTEuMDA1NiAxMi40OTE0IDEwLjQ0OTEgMTIuNDc3NyAxMC4wOTc1IDEyLjgxNzdDOS43NDU5NCAxMy4xNTc4IDkuNzMyMzYgMTMuNzIzIDEwLjA2NzIgMTQuMDgwMUwxMS4xNjQ4IDE1LjQ3MjlINS40NTA1NEM0Ljk2NTAyIDE1LjQ3MjkgNC41NzE0MiAxNS44NzI3IDQuNTcxNDIgMTYuMzY1OEM0LjU3MTQyIDE2Ljg1ODkgNC45NjUwMSAxNy4yNTg3IDUuNDUwNTQgMTcuMjU4N0wxMS4xNjQ4IDE3LjI1ODdMMTAuMDY3MiAxOC42NTE1QzkuNzMyMzYgMTkuMDA4NiA5Ljc0NTk0IDE5LjU3MzcgMTAuMDk3NSAxOS45MTM4Wk0yMC42NjM0IDEyLjg0ODVDMjAuOTk4MiAxMi40OTE0IDIxLjU1NDcgMTIuNDc3NyAyMS45MDYzIDEyLjgxNzdDMjIuMjU3OSAxMy4xNTc4IDIyLjI3MTUgMTMuNzIzIDIxLjkzNjYgMTQuMDhMMjAuODM5IDE1LjQ3MjlIMjYuNTUzM0MyNy4wMzg4IDE1LjQ3MjkgMjcuNDMyNCAxNS44NzI2IDI3LjQzMjQgMTYuMzY1OEMyNy40MzI0IDE2Ljg1ODkgMjcuMDM4OCAxNy4yNTg2IDI2LjU1MzMgMTcuMjU4NkgyMC44MzlMMjEuOTM2NiAxOC42NTE1QzIyLjI3MTUgMTkuMDA4NiAyMi4yNTc5IDE5LjU3MzcgMjEuOTA2MyAxOS45MTM4QzIxLjU1NDcgMjAuMjUzOSAyMC45OTgyIDIwLjI0MDEgMjAuNjYzNCAxOS44ODNMMTguMTUxMSAxNi45ODE1QzE3LjgyNzcgMTYuNjM2NyAxNy44Mjc3IDE2LjA5NDggMTguMTUxMSAxNS43NUwyMC42NjM0IDEyLjg0ODVaIiBjbGlwLXJ1bGU9ImV2ZW5vZGQiIGZpbGwtcnVsZT0iZXZlbm9kZCIvPiYjeGE7PC9zdmc+;fontSize=20;fontFamily=VK Sans Display;fontSource=https://fonts.googleapis.com/css?family=Architects+Daughter;" vertex="1" parent="1">
          <mxGeometry x="-287" y="260" width="40" height="40" as="geometry" />
        </mxCell>
        <mxCell id="l8OaLnw3HOuMR9vGeQDa-9" value="&lt;font color=&quot;#212121&quot; style=&quot;font-size: 20px;&quot;&gt;Cloud Network&lt;/font&gt;" style="rounded=1;whiteSpace=wrap;html=1;fontFamily=VK Sans Display;strokeColor=none;arcsize=12;fillColor=#F6F7F9;spacing=0;spacingTop=12;spacingBottom=12;arcSize=12;absoluteArcSize=1;labelBorderColor=none;fontSize=20;strokeWidth=1;labelBackgroundColor=none;fontSource=https://fonts.googleapis.com/css?family=Architects+Daughter;" vertex="1" parent="1">
          <mxGeometry x="273" y="250" width="160" height="60" as="geometry" />
        </mxCell>
        <mxCell id="l8OaLnw3HOuMR9vGeQDa-12" style="edgeStyle=none;shape=connector;rounded=0;orthogonalLoop=1;jettySize=auto;html=1;exitX=0;exitY=0.5;exitDx=0;exitDy=0;entryX=1;entryY=0.5;entryDx=0;entryDy=0;labelBackgroundColor=default;strokeColor=#7C8A9A;strokeWidth=2;align=center;verticalAlign=middle;fontFamily=VK Sans Display;fontSize=11;fontColor=#212121;startArrow=oval;startFill=1;endArrow=oval;endFill=1;" edge="1" parent="1" source="l8OaLnw3HOuMR9vGeQDa-15">
          <mxGeometry relative="1" as="geometry">
            <mxPoint x="-247" y="280" as="targetPoint" />
          </mxGeometry>
        </mxCell>
        <mxCell id="l8OaLnw3HOuMR9vGeQDa-13" style="edgeStyle=none;shape=connector;rounded=0;orthogonalLoop=1;jettySize=auto;html=1;exitX=1;exitY=0.5;exitDx=0;exitDy=0;entryX=0;entryY=0.5;entryDx=0;entryDy=0;labelBackgroundColor=default;strokeColor=#7C8A9A;strokeWidth=2;align=center;verticalAlign=middle;fontFamily=VK Sans Display;fontSize=11;fontColor=#212121;startArrow=oval;startFill=1;endArrow=oval;endFill=1;" edge="1" parent="1" source="l8OaLnw3HOuMR9vGeQDa-6" target="l8OaLnw3HOuMR9vGeQDa-9">
          <mxGeometry relative="1" as="geometry">
            <mxPoint x="-217" y="-20" as="targetPoint" />
          </mxGeometry>
        </mxCell>
        <mxCell id="l8OaLnw3HOuMR9vGeQDa-15" value="Internet" style="shape=image;verticalLabelPosition=bottom;labelBackgroundColor=none;verticalAlign=top;aspect=fixed;imageAspect=0;image=data:image/svg+xml,PHN2ZyB4bWxucz0iaHR0cDovL3d3dy53My5vcmcvMjAwMC9zdmciIGZpbGw9Im5vbmUiIHZpZXdCb3g9IjAgMCAyOCAyOCIgaGVpZ2h0PSIyOCIgd2lkdGg9IjI4Ij4mI3hhOzxwYXRoIGZpbGw9IiMwMDc3RkYiIGQ9Ik0xNC4wMDI4IDJMMTQgMkM3LjM3MjU4IDIgMiA3LjM3MjU4IDIgMTRDMiAyMC42Mjc0IDcuMzcyNTggMjYgMTQgMjZDMjAuNjI3NCAyNiAyNiAyMC42Mjc0IDI2IDE0QzI2IDcuMzczNSAyMC42Mjg5IDIuMDAxNDkgMTQuMDAyOCAyWk0xNi4zMTM4IDIzLjczMUMxOS4wMjI2IDIzLjA4OTMgMjEuMzA1MiAyMS4zNDU5IDIyLjY2MjIgMTlIMTguMzc4N0MxNy45Nzc5IDIwLjUyODYgMTcuNDI5NiAyMS43OTE0IDE2Ljg3NTYgMjIuNzk1NkMxNi42ODY4IDIzLjEzNzcgMTYuNDk3NyAyMy40NDk0IDE2LjMxMzggMjMuNzMxWk0xOC43ODUzIDE3SDIzLjU0MjJDMjMuODM5NiAxNi4wNTMgMjQgMTUuMDQ1MiAyNCAxNEMyNCAxMi45NTQ4IDIzLjgzOTYgMTEuOTQ3IDIzLjU0MjIgMTFIMTguNzg1M0MxOC45MjE0IDExLjkyNDQgMTkgMTIuOTI0IDE5IDE0QzE5IDE1LjA3NiAxOC45MjE0IDE2LjA3NTYgMTguNzg1MyAxN1pNMTYuNzYxMiAxMUMxNi45MTExIDExLjkwOTcgMTcgMTIuOTA5IDE3IDE0QzE3IDE1LjA5MSAxNi45MTExIDE2LjA5MDMgMTYuNzYxMiAxN0gxMS4yMzg4QzExLjA4ODkgMTYuMDkwMyAxMSAxNS4wOTEgMTEgMTRDMTEgMTIuOTA5IDExLjA4ODkgMTEuOTA5NyAxMS4yMzg4IDExSDE2Ljc2MTJaTTE4LjM3ODcgOUgyMi42NjIyQzIxLjMwNTIgNi42NTQxNCAxOS4wMjI2IDQuOTEwNjkgMTYuMzEzOCA0LjI2OTAzQzE2LjQ5NzcgNC41NTA2NCAxNi42ODY4IDQuODYyMzEgMTYuODc1NiA1LjIwNDQyQzE3LjQyOTYgNi4yMDg2IDE3Ljk3NzkgNy40NzE0NSAxOC4zNzg3IDlaTTExLjY4NjIgNC4yNjkwM0M4Ljk3NzQyIDQuOTEwNjkgNi42OTQ4MyA2LjY1NDE0IDUuMzM3ODIgOUg5LjYyMTMxQzEwLjAyMjEgNy40NzE0NSAxMC41NzA0IDYuMjA4NiAxMS4xMjQ0IDUuMjA0NDJDMTEuMzEzMiA0Ljg2MjMxIDExLjUwMjMgNC41NTA2NCAxMS42ODYyIDQuMjY5MDNaTTExLjY5OCA5QzEyLjAzNTcgNy44Njg2MiAxMi40NTc4IDYuOTI3NzMgMTIuODc1NiA2LjE3MDU4QzEzLjI3OTEgNS40MzkxOCAxMy42ODAxIDQuODc2NjYgMTQgNC40NzgzNkMxNC4zMTk5IDQuODc2NjYgMTQuNzIwOSA1LjQzOTE4IDE1LjEyNDQgNi4xNzA1OEMxNS41NDIyIDYuOTI3NzMgMTUuOTY0MyA3Ljg2ODYyIDE2LjMwMiA5SDExLjY5OFpNOS4yMTQ2OCAxMUg0LjQ1NzhDNC4xNjAzNSAxMS45NDcgNCAxMi45NTQ4IDQgMTRDNCAxNS4wNDUyIDQuMTYwMzUgMTYuMDUzIDQuNDU3OCAxN0g5LjIxNDY4QzkuMDc4NTcgMTYuMDc1NiA5IDE1LjA3NiA5IDE0QzkgMTIuOTI0IDkuMDc4NTcgMTEuOTI0NCA5LjIxNDY4IDExWk05LjYyMTMxIDE5SDUuMzM3ODJDNi42OTQ4MyAyMS4zNDU5IDguOTc3NDIgMjMuMDg5MyAxMS42ODYyIDIzLjczMUMxMS41MDIzIDIzLjQ0OTQgMTEuMzEzMiAyMy4xMzc3IDExLjEyNDQgMjIuNzk1NkMxMC41NzA0IDIxLjc5MTQgMTAuMDIyMSAyMC41Mjg2IDkuNjIxMzEgMTlaTTExLjY5OCAxOUgxNi4zMDJDMTUuOTY0MyAyMC4xMzE0IDE1LjU0MjIgMjEuMDcyMyAxNS4xMjQ0IDIxLjgyOTRDMTQuNzIwOSAyMi41NjA4IDE0LjMxOTkgMjMuMTIzMyAxNCAyMy41MjE2QzEzLjY4MDEgMjMuMTIzMyAxMy4yNzkxIDIyLjU2MDggMTIuODc1NiAyMS44Mjk0QzEyLjQ1NzggMjEuMDcyMyAxMi4wMzU3IDIwLjEzMTQgMTEuNjk4IDE5WiIgY2xpcC1ydWxlPSJldmVub2RkIiBmaWxsLXJ1bGU9ImV2ZW5vZGQiLz4mI3hhOzwvc3ZnPg==;fontSize=20;fontFamily=VK Sans Display;fontSource=https://fonts.googleapis.com/css?family=Architects+Daughter;opacity=80;" vertex="1" parent="1">
          <mxGeometry x="-90" y="260" width="40" height="40" as="geometry" />
        </mxCell>
        <mxCell id="l8OaLnw3HOuMR9vGeQDa-16" style="edgeStyle=none;shape=connector;rounded=0;orthogonalLoop=1;jettySize=auto;html=1;exitX=0.5;exitY=0;exitDx=0;exitDy=0;labelBackgroundColor=default;strokeColor=#7C8A9A;strokeWidth=2;align=center;verticalAlign=middle;fontFamily=VK Sans Display;fontSize=11;fontColor=#212121;startArrow=oval;startFill=1;endArrow=oval;endFill=1;dashed=1;entryX=0.5;entryY=0;entryDx=0;entryDy=0;" edge="1" parent="1" target="l8OaLnw3HOuMR9vGeQDa-6">
          <mxGeometry relative="1" as="geometry">
            <Array as="points">
              <mxPoint x="-267" y="90" />
              <mxPoint x="121" y="90" />
            </Array>
            <mxPoint x="-267" y="260" as="sourcePoint" />
            <mxPoint x="118" y="-51" as="targetPoint" />
          </mxGeometry>
        </mxCell>
        <mxCell id="l8OaLnw3HOuMR9vGeQDa-17" value="Site-to-Site IPsec" style="edgeLabel;html=1;align=center;verticalAlign=middle;resizable=0;points=[];fontSize=16;fontFamily=VK Sans Display;fontColor=#212121;textOpacity=70;" vertex="1" connectable="0" parent="l8OaLnw3HOuMR9vGeQDa-16">
          <mxGeometry x="0.2338" y="1" relative="1" as="geometry">
            <mxPoint x="-82" as="offset" />
          </mxGeometry>
        </mxCell>
        <mxCell id="l8OaLnw3HOuMR9vGeQDa-18" style="edgeStyle=none;shape=connector;rounded=0;orthogonalLoop=1;jettySize=auto;html=1;exitX=1;exitY=0.5;exitDx=0;exitDy=0;entryX=0;entryY=0.5;entryDx=0;entryDy=0;labelBackgroundColor=default;strokeColor=#7C8A9A;strokeWidth=2;align=center;verticalAlign=middle;fontFamily=VK Sans Display;fontSize=11;fontColor=#212121;startArrow=oval;startFill=1;endArrow=oval;endFill=1;" edge="1" parent="1" source="l8OaLnw3HOuMR9vGeQDa-9" target="l8OaLnw3HOuMR9vGeQDa-4">
          <mxGeometry relative="1" as="geometry">
            <mxPoint x="-177" y="-20" as="sourcePoint" />
            <mxPoint x="3" y="-20" as="targetPoint" />
          </mxGeometry>
        </mxCell>
        <mxCell id="l8OaLnw3HOuMR9vGeQDa-20" value="Static routes to client subnets via Client router" style="rounded=1;whiteSpace=wrap;html=1;fontFamily=VK Sans Display;strokeColor=none;arcsize=12;fillColor=none;spacing=0;spacingTop=12;spacingBottom=12;arcSize=12;absoluteArcSize=1;strokeWidth=1;fontSize=16;" vertex="1" parent="1">
          <mxGeometry x="23" y="310" width="190" height="80" as="geometry" />
        </mxCell>
        <mxCell id="l8OaLnw3HOuMR9vGeQDa-21" style="edgeStyle=orthogonalEdgeStyle;rounded=0;hachureGap=4;orthogonalLoop=1;jettySize=auto;html=1;entryX=0;entryY=0.5;entryDx=0;entryDy=0;fontFamily=VK Sans Display;fontSource=https://fonts.googleapis.com/css?family=Architects+Daughter;fontSize=11;endArrow=oval;strokeColor=#7C8A9A;fontColor=#212121;strokeWidth=2;startArrow=oval;startFill=1;endFill=1;" edge="1" parent="1" target="l8OaLnw3HOuMR9vGeQDa-23">
          <mxGeometry relative="1" as="geometry">
            <mxPoint x="-701.6700000000003" y="280" as="sourcePoint" />
          </mxGeometry>
        </mxCell>
        <mxCell id="l8OaLnw3HOuMR9vGeQDa-22" style="edgeStyle=orthogonalEdgeStyle;rounded=0;hachureGap=4;orthogonalLoop=1;jettySize=auto;html=1;fontFamily=VK Sans Display;fontSource=https://fonts.googleapis.com/css?family=Architects+Daughter;fontSize=11;endArrow=oval;strokeColor=#7C8A9A;fontColor=#212121;strokeWidth=2;startArrow=oval;startFill=1;endFill=1;" edge="1" parent="1" source="l8OaLnw3HOuMR9vGeQDa-23">
          <mxGeometry relative="1" as="geometry">
            <mxPoint x="-287" y="280" as="targetPoint" />
          </mxGeometry>
        </mxCell>
        <mxCell id="l8OaLnw3HOuMR9vGeQDa-25" value="" style="edgeStyle=none;shape=connector;rounded=0;orthogonalLoop=1;jettySize=auto;html=1;exitX=1;exitY=0.5;exitDx=0;exitDy=0;entryX=0;entryY=0.5;entryDx=0;entryDy=0;labelBackgroundColor=default;strokeColor=#7C8A9A;strokeWidth=2;align=center;verticalAlign=middle;fontFamily=VK Sans Display;fontSize=11;fontColor=#212121;startArrow=oval;startFill=1;endArrow=oval;endFill=1;" edge="1" parent="1" source="l8OaLnw3HOuMR9vGeQDa-15" target="l8OaLnw3HOuMR9vGeQDa-6">
          <mxGeometry relative="1" as="geometry">
            <mxPoint x="-385" y="-20" as="sourcePoint" />
            <mxPoint x="-217" y="-20" as="targetPoint" />
          </mxGeometry>
        </mxCell>
        <mxCell id="l8OaLnw3HOuMR9vGeQDa-31" value="&lt;font color=&quot;#212121&quot; style=&quot;font-size: 16px;&quot;&gt;Static routes to clouds subnets via Advanced router&lt;/font&gt;" style="rounded=1;whiteSpace=wrap;html=1;fontFamily=VK Sans Display;strokeColor=none;arcsize=12;fillColor=none;spacing=0;spacingTop=12;spacingBottom=12;arcSize=12;absoluteArcSize=1;strokeWidth=1;fontSize=16;" vertex="1" parent="1">
          <mxGeometry x="-370" y="321" width="200" height="76" as="geometry" />
        </mxCell>
      </root>
    </mxGraphModel>
  </diagram>
  <diagram name="VPN_FIP_scheme" id="11PJ69-uB57YGVGKOkZN">
    <mxGraphModel dx="2375" dy="895" grid="1" gridSize="10" guides="1" tooltips="1" connect="1" arrows="1" fold="1" page="1" pageScale="1" pageWidth="827" pageHeight="1169" math="0" shadow="0">
      <root>
        <mxCell id="cCSclVaMRaV_BsZJ9kHP-0" />
        <mxCell id="cCSclVaMRaV_BsZJ9kHP-1" parent="cCSclVaMRaV_BsZJ9kHP-0" />
        <mxCell id="cCSclVaMRaV_BsZJ9kHP-22" value="&lt;font color=&quot;#212121&quot; style=&quot;font-size: 20px;&quot;&gt;Client Network&lt;/font&gt;" style="rounded=1;whiteSpace=wrap;html=1;fontFamily=VK Sans Display;strokeColor=none;arcsize=12;fillColor=#F6F7F9;spacing=0;spacingTop=12;spacingBottom=12;arcSize=12;absoluteArcSize=1;strokeWidth=1;fontSize=20;verticalAlign=middle;labelBackgroundColor=none;fontSource=https%3A%2F%2Ffonts.googleapis.com%2Fcss%3Ffamily%3DArchitects%2BDaughter;" parent="cCSclVaMRaV_BsZJ9kHP-1" vertex="1">
          <mxGeometry x="-550" y="631" width="160" height="60" as="geometry" />
        </mxCell>
        <mxCell id="cCSclVaMRaV_BsZJ9kHP-2" value="" style="rounded=0;whiteSpace=wrap;html=1;hachureGap=4;fontFamily=VK Sans Display;fontSource=https%3A%2F%2Ffonts.googleapis.com%2Fcss%3Ffamily%3DArchitects%2BDaughter;fontSize=20;fontColor=#212121;fillColor=none;strokeColor=none;" parent="cCSclVaMRaV_BsZJ9kHP-1" vertex="1">
          <mxGeometry x="-793" y="240" width="1500" height="640" as="geometry" />
        </mxCell>
        <mxCell id="cCSclVaMRaV_BsZJ9kHP-5" value="&lt;font style=&quot;font-size: 20px;&quot;&gt;&lt;br&gt;&lt;font style=&quot;font-size: 20px;&quot; face=&quot;VK Sans Display&quot;&gt;&lt;b&gt;Client Network&lt;/b&gt;&lt;/font&gt;&lt;br&gt;&lt;/font&gt;" style="rounded=1;whiteSpace=wrap;html=1;strokeColor=#7C8A9A;strokeWidth=1;fontColor=default;fillColor=none;dashed=1;arcSize=12;absoluteArcSize=1;align=center;verticalAlign=top;fontSize=20;fontFamily=VK Sans Display;labelBackgroundColor=none;fontSource=https%3A%2F%2Ffonts.googleapis.com%2Fcss%3Ffamily%3DArchitects%2BDaughter;dashPattern=8 8;" parent="cCSclVaMRaV_BsZJ9kHP-1" vertex="1">
          <mxGeometry x="-779" y="250" width="664" height="620" as="geometry" />
        </mxCell>
        <mxCell id="b6NsYZ9JHDC7_DL7XxHp-1" value="Advanced router" style="shape=image;verticalLabelPosition=bottom;labelBackgroundColor=none;verticalAlign=top;aspect=fixed;imageAspect=0;image=data:image/svg+xml,PHN2ZyB4bWxucz0iaHR0cDovL3d3dy53My5vcmcvMjAwMC9zdmciIGZpbGw9Im5vbmUiIHZpZXdCb3g9IjAgMCAzMiAzMiIgaGVpZ2h0PSIzMiIgd2lkdGg9IjMyIj4mI3hhOzxwYXRoIGZpbGw9IiMwMDc3RkYiIGQ9Ik0zLjMxNDI4IDE2QzMuMzE0MjggOC45OTM4NyA4Ljk5Mzg3IDMuMzE0MjggMTYgMy4zMTQyOEMyMy4wMDYxIDMuMzE0MjggMjguNjg1NyA4Ljk5Mzg3IDI4LjY4NTcgMTZDMjguNjg1NyAyMy4wMDYxIDIzLjAwNjEgMjguNjg1NyAxNiAyOC42ODU3QzguOTkzODcgMjguNjg1NyAzLjMxNDI4IDIzLjAwNjEgMy4zMTQyOCAxNlpNMTYgMS4yNTcxNEM3Ljg1Nzc0IDEuMjU3MTQgMS4yNTcxNCA3Ljg1Nzc0IDEuMjU3MTQgMTZDMS4yNTcxNCAyNC4xNDIzIDcuODU3NzQgMzAuNzQyOSAxNiAzMC43NDI5QzI0LjE0MjMgMzAuNzQyOSAzMC43NDI5IDI0LjE0MjMgMzAuNzQyOSAxNkMzMC43NDI5IDcuODU3NzQgMjQuMTQyMyAxLjI1NzE0IDE2IDEuMjU3MTRaTTE5LjUxNzMgNy4zMjYyNUMxOS44NzQzIDcuNjYxMSAxOS44ODgxIDguMjE3NTYgMTkuNTQ4MSA4LjU2OTE1QzE5LjIwOCA4LjkyMDczIDE4LjY0MjggOC45MzQzMSAxOC4yODU3IDguNTk5NDZMMTYuODkyOSA3LjUwMTgzVjE4LjkzMDRMMTYuODkyOCAxOC45MzlWMjQuNDk4MkwxOC4yODU3IDIzLjQwMDVDMTguNjQyOCAyMy4wNjU3IDE5LjIwOCAyMy4wNzkzIDE5LjU0OCAyMy40MzA5QzE5Ljg4ODEgMjMuNzgyNCAxOS44NzQzIDI0LjMzODkgMTkuNTE3MyAyNC42NzM3TDE2LjYxNTggMjcuMTg2MUMxNi4yNzA5IDI3LjUwOTQgMTUuNzI5MSAyNy41MDk0IDE1LjM4NDIgMjcuMTg2MUwxMi40ODI4IDI0LjY3MzdDMTIuMTI1NyAyNC4zMzg5IDEyLjExMTkgMjMuNzgyNCAxMi40NTIgMjMuNDMwOUMxMi43OTIgMjMuMDc5MyAxMy4zNTcyIDIzLjA2NTcgMTMuNzE0MyAyMy40MDA1TDE1LjEwNzEgMjQuNDk4MkwxNS4xMDcxIDEzLjA2OTZMMTUuMTA3MiAxMy4wNjA5VjcuNTAxODNMMTMuNzE0MyA4LjU5OTQ2QzEzLjM1NzIgOC45MzQzMSAxMi43OTIgOC45MjA3MyAxMi40NTIgOC41NjkxNUMxMi4xMTE5IDguMjE3NTYgMTIuMTI1NyA3LjY2MTEgMTIuNDgyOCA3LjMyNjI1TDE1LjM4NDMgNC44MTM5NUMxNS43MjkxIDQuNDkwNTkgMTYuMjcxIDQuNDkwNTkgMTYuNjE1OCA0LjgxMzk1TDE5LjUxNzMgNy4zMjYyNVpNMTAuMDk3NSAxOS45MTM4QzEwLjQ0OTEgMjAuMjUzOSAxMS4wMDU2IDIwLjI0MDEgMTEuMzQwNCAxOS44ODNMMTMuODUyNyAxNi45ODE2QzE0LjE3NjEgMTYuNjM2NyAxNC4xNzYxIDE2LjA5NDkgMTMuODUyNyAxNS43NUwxMS4zNDA0IDEyLjg0ODVDMTEuMDA1NiAxMi40OTE0IDEwLjQ0OTEgMTIuNDc3NyAxMC4wOTc1IDEyLjgxNzdDOS43NDU5NCAxMy4xNTc4IDkuNzMyMzYgMTMuNzIzIDEwLjA2NzIgMTQuMDgwMUwxMS4xNjQ4IDE1LjQ3MjlINS40NTA1NEM0Ljk2NTAyIDE1LjQ3MjkgNC41NzE0MiAxNS44NzI3IDQuNTcxNDIgMTYuMzY1OEM0LjU3MTQyIDE2Ljg1ODkgNC45NjUwMSAxNy4yNTg3IDUuNDUwNTQgMTcuMjU4N0wxMS4xNjQ4IDE3LjI1ODdMMTAuMDY3MiAxOC42NTE1QzkuNzMyMzYgMTkuMDA4NiA5Ljc0NTk0IDE5LjU3MzcgMTAuMDk3NSAxOS45MTM4Wk0yMC42NjM0IDEyLjg0ODVDMjAuOTk4MiAxMi40OTE0IDIxLjU1NDcgMTIuNDc3NyAyMS45MDYzIDEyLjgxNzdDMjIuMjU3OSAxMy4xNTc4IDIyLjI3MTUgMTMuNzIzIDIxLjkzNjYgMTQuMDhMMjAuODM5IDE1LjQ3MjlIMjYuNTUzM0MyNy4wMzg4IDE1LjQ3MjkgMjcuNDMyNCAxNS44NzI2IDI3LjQzMjQgMTYuMzY1OEMyNy40MzI0IDE2Ljg1ODkgMjcuMDM4OCAxNy4yNTg2IDI2LjU1MzMgMTcuMjU4NkgyMC44MzlMMjEuOTM2NiAxOC42NTE1QzIyLjI3MTUgMTkuMDA4NiAyMi4yNTc5IDE5LjU3MzcgMjEuOTA2MyAxOS45MTM4QzIxLjU1NDcgMjAuMjUzOSAyMC45OTgyIDIwLjI0MDEgMjAuNjYzNCAxOS44ODNMMTguMTUxMSAxNi45ODE1QzE3LjgyNzcgMTYuNjM2NyAxNy44Mjc3IDE2LjA5NDggMTguMTUxMSAxNS43NUwyMC42NjM0IDEyLjg0ODVaIiBjbGlwLXJ1bGU9ImV2ZW5vZGQiIGZpbGwtcnVsZT0iZXZlbm9kZCIvPiYjeGE7PC9zdmc+;fontSize=20;fontFamily=VK Sans Display;fontSource=https%3A%2F%2Ffonts.googleapis.com%2Fcss%3Ffamily%3DArchitects%2BDaughter;" vertex="1" parent="cCSclVaMRaV_BsZJ9kHP-1">
          <mxGeometry x="125" y="329" width="40" height="40" as="geometry" />
        </mxCell>
        <mxCell id="cCSclVaMRaV_BsZJ9kHP-20" value="Cloud servers" style="shape=image;verticalLabelPosition=bottom;labelBackgroundColor=none;verticalAlign=top;aspect=fixed;imageAspect=0;image=data:image/svg+xml,PHN2ZyB4bWxucz0iaHR0cDovL3d3dy53My5vcmcvMjAwMC9zdmciIGZpbGw9Im5vbmUiIHZpZXdCb3g9IjAgMCA0OSAzMCIgaGVpZ2h0PSIzMCIgd2lkdGg9IjQ5Ij4mI3hhOzxwYXRoIGZpbGw9IiMwMDc3RkYiIGQ9Ik0wIDEwLjMzMzNDMCA3LjA2NjM2IDAgNC40MzI4NyAwLjYzNTc5NiAzLjE4NTA2QzEuMTk1MDYgMi4wODc0NCAyLjA4NzQ0IDEuMTk1MDYgMy4xODUwNiAwLjYzNTc5NUMzLjMxMDkyIDAuNTcxNjYyIDMuNDIwMzcgMC41MTM5OTggMy41MTg3NyAwLjQ2MjE1QzMuNzQ5NCAwLjM0MDYzNSAzLjkxOTM5IDAuMjUxMDcxIDQuMDk4MDcgMC4xODUwNTZDNC41OTg5OCAwIDUuMTY4MjUgMCA3LjMzMzMzIDBIMTJDMTQuMTY1MSAwIDE0LjczNDQgMCAxNS4yMzUzIDAuMTg1MDU2QzE1LjQxMzkgMC4yNTEwNzEgMTUuNTgzOSAwLjM0MDYzNSAxNS44MTQ2IDAuNDYyMTVDMTUuOTEyOSAwLjUxMzk4OCAxNi4wMjI0IDAuNTcxNjc3IDE2LjE0ODMgMC42MzU3OTVDMTcuMjQ1OSAxLjE5NTA2IDE4LjEzODMgMi4wODc0NCAxOC42OTc1IDMuMTg1MDZDMTguODczMiAzLjUyOTc2IDE5LjAwMDMgMy45ODAyIDE5LjA5MjMgNC41MjA1MkMxOS4wOTQyIDQuNTE5OCAxOS4wOTYxIDQuNTE5MDggMTkuMDk4MSA0LjUxODM3QzE5LjU5OSA0LjMzMzMxIDIwLjE2ODMgNC4zMzMzMSAyMi4zMzMzIDQuMzMzMzFIMjdDMjguMTA0NSA0LjMzMzMxIDI4Ljc5MzYgNC4zMzMzMSAyOS4yNzAzIDQuMzU3ODhDMjkuMzU5NSAzLjg4OTM0IDI5LjQ3ODEgMy40OTQ1NyAyOS42MzU4IDMuMTg1MDZDMzAuMTk1MSAyLjA4NzQ0IDMxLjA4NzQgMS4xOTUwNiAzMi4xODUxIDAuNjM1Nzk1QzMyLjMxMDkgMC41NzE2NjIgMzIuNDIwNCAwLjUxMzk5OCAzMi41MTg4IDAuNDYyMTVDMzIuNzQ5NCAwLjM0MDYzNSAzMi45MTk0IDAuMjUxMDcxIDMzLjA5ODEgMC4xODUwNTZDMzMuNTk5IDAgMzQuMTY4MyAwIDM2LjMzMzMgMEg0MUM0My4xNjUxIDAgNDMuNzM0NCAwIDQ0LjIzNTMgMC4xODUwNTZDNDQuNDEzOSAwLjI1MTA3MSA0NC41ODM5IDAuMzQwNjM1IDQ0LjgxNDYgMC40NjIxNUM0NC45MTI5IDAuNTEzOTg4IDQ1LjAyMjQgMC41NzE2NzcgNDUuMTQ4MyAwLjYzNTc5NUM0Ni4yNDU5IDEuMTk1MDYgNDcuMTM4MyAyLjA4NzQ0IDQ3LjY5NzUgMy4xODUwNkM0OC4zMzMzIDQuNDMyODcgNDguMzMzMyA3LjA2NjM2IDQ4LjMzMzMgMTAuMzMzM1YxNUM0OC4zMzMzIDE4LjI2NyA0OC4zMzMzIDIwLjkwMDUgNDcuNjk3NSAyMi4xNDgzQzQ3LjEzODMgMjMuMjQ1OSA0Ni4yNDU5IDI0LjEzODMgNDUuMTQ4MyAyNC42OTc1QzQ1LjAyMjcgMjQuNzYxNSA0NC45MTM1IDI0LjgxOSA0NC44MTUzIDI0Ljg3MDhDNDQuNTg0NyAyNC45OTIzIDQ0LjQxMzkgMjUuMDgyMyA0NC4yMzUzIDI1LjE0ODNDNDMuNzM0NCAyNS4zMzMzIDQzLjE2NTEgMjUuMzMzMyA0MSAyNS4zMzMzSDM2LjMzMzNDMzUuMjI4OSAyNS4zMzMzIDM0LjUzOTcgMjUuMzMzMyAzNC4wNjMgMjUuMzA4OEMzMy45NzM4IDI1Ljc3NzMgMzMuODU1MiAyNi4xNzIxIDMzLjY5NzUgMjYuNDgxNkMzMy4xMzgzIDI3LjU3OTIgMzIuMjQ1OSAyOC40NzE2IDMxLjE0ODMgMjkuMDMwOEMzMS4wMjI2IDI5LjA5NDkgMzAuOTEzMiAyOS4xNTI1IDMwLjgxNDkgMjkuMjA0M0MzMC41ODQzIDI5LjMyNTggMzAuNDEzOSAyOS40MTU2IDMwLjIzNTMgMjkuNDgxNkMyOS43MzQ0IDI5LjY2NjYgMjkuMTY1MSAyOS42NjY2IDI3IDI5LjY2NjZIMjIuMzMzM0MyMC4xNjgzIDI5LjY2NjYgMTkuNTk5IDI5LjY2NjYgMTkuMDk4MSAyOS40ODE2QzE4LjkxOTQgMjkuNDE1NiAxOC43NDk0IDI5LjMyNiAxOC41MTg4IDI5LjIwNDVDMTguNDIwNCAyOS4xNTI3IDE4LjMxMDkgMjkuMDk1IDE4LjE4NTEgMjkuMDMwOEMxNy4wODc0IDI4LjQ3MTYgMTYuMTk1MSAyNy41NzkyIDE1LjYzNTggMjYuNDgxNkMxNS40NjAyIDI2LjEzNjkgMTUuMzMzIDI1LjY4NjUgMTUuMjQxIDI1LjE0NjFDMTUuMjM5MSAyNS4xNDY4IDE1LjIzNzIgMjUuMTQ3NiAxNS4yMzUzIDI1LjE0ODNDMTQuNzM0NCAyNS4zMzMzIDE0LjE2NTEgMjUuMzMzMyAxMiAyNS4zMzMzSDcuMzMzMzNDNS4xNjgyNSAyNS4zMzMzIDQuNTk4OTggMjUuMzMzMyA0LjA5ODA3IDI1LjE0ODNDMy45MTkzOSAyNS4wODIzIDMuNzQ5NDEgMjQuOTkyNyAzLjUxODc4IDI0Ljg3MTJDMy40MjA0MSAyNC44MTk0IDMuMzEwODggMjQuNzYxNiAzLjE4NTA2IDI0LjY5NzVDMi4wODc0NCAyNC4xMzgzIDEuMTk1MDYgMjMuMjQ1OSAwLjYzNTc5NiAyMi4xNDgzQzAgMjAuOTAwNSAwIDE4LjI2NyAwIDE1VjEwLjMzMzNaTTE1LjAzNyAyMi44MDM0QzE1LjAxOCAyMi4yNzMxIDE1LjAwODggMjEuNzA2MSAxNS4wMDQzIDIxLjEwODNDMTQuODk4OCAyMS4xNDYxIDE0Ljc4NTEgMjEuMTY2NyAxNC42NjY3IDIxLjE2NjdINC42NjY2NkM0LjExNDM3IDIxLjE2NjcgMy42NjY2NiAyMC43MTkgMy42NjY2NiAyMC4xNjY3QzMuNjY2NjYgMTkuNjE0NCA0LjExNDM3IDE5LjE2NjcgNC42NjY2NiAxOS4xNjY3SDE0LjY2NjdDMTQuNzgzNSAxOS4xNjY3IDE0Ljg5NTcgMTkuMTg2NyAxNSAxOS4yMjM2VjE3LjEwOThDMTQuODk1NyAxNy4xNDY2IDE0Ljc4MzUgMTcuMTY2NyAxNC42NjY3IDE3LjE2NjdINC42NjY2NkM0LjExNDM3IDE3LjE2NjcgMy42NjY2NiAxNi43MTkgMy42NjY2NiAxNi4xNjY3QzMuNjY2NjYgMTUuNjE0NCA0LjExNDM3IDE1LjE2NjcgNC42NjY2NiAxNS4xNjY3SDE0LjY2NjdDMTQuNzgzNSAxNS4xNjY3IDE0Ljg5NTcgMTUuMTg2NyAxNSAxNS4yMjM2VjE0LjY2NjZDMTUgMTEuMzk5NyAxNSA4Ljc2NjE5IDE1LjYzNTggNy41MTgzN0MxNS45OTE4IDYuODE5NzQgMTYuNDgyNyA2LjIwNDI2IDE3LjA3NTYgNS43MDQ4OUMxNy4wNzQ5IDUuNjk2NTMgMTcuMDc0MyA1LjY4ODI4IDE3LjA3MzYgNS42ODAxNEMxNy4wMDUyIDQuODQyNyAxNi44ODMgNC40NDIzIDE2Ljc0ODUgNC4xNzgxNkMxNi4zOTg5IDMuNDkyMTUgMTUuODQxMiAyLjkzNDQxIDE1LjE1NTIgMi41ODQ4N0MxNC44OTEgMi40NTAyOSAxNC40OTA2IDIuMzI4MTMgMTMuNjUzMiAyLjI1OTcxQzEzLjM1MzQgMi4yMzUyMSAxMy4yNjM5IDIuMjE5MDIgMTMuMjA0NyAyLjIwODMyQzEzLjA5MzYgMi4xODgyMiAxMy4wODk2IDIuMTg3NSAxMiAyLjE4NzVINy4zMzMzM0M2LjI0Mzc3IDIuMTg3NSA2LjIzOTc2IDIuMTg4MjIgNi4xMjg2MiAyLjIwODMyQzYuMDY5NDYgMi4yMTkwMiA1Ljk3OTk0IDIuMjM1MjEgNS42ODAxNCAyLjI1OTcxQzQuODQyNyAyLjMyODEzIDQuNDQyMyAyLjQ1MDI5IDQuMTc4MTYgMi41ODQ4N0MzLjQ5MjE1IDIuOTM0NDEgMi45MzQ0MSAzLjQ5MjE1IDIuNTg0ODcgNC4xNzgxNkMyLjQ1MDI5IDQuNDQyMyAyLjMyODEzIDQuODQyNyAyLjI1OTcxIDUuNjgwMTRDMi4xODkyIDYuNTQzMTIgMi4xODc1IDguNjYzNzUgMi4xODc1IDEwLjMzMzNWMTVDMi4xODc1IDE2LjY2OTYgMi4xODkyIDE4Ljc5MDIgMi4yNTk3MSAxOS42NTMyQzIuMzI4MTMgMjAuNDkwNiAyLjQ1MDI5IDIwLjg5MSAyLjU4NDg3IDIxLjE1NTJDMi45MzQ0MSAyMS44NDEyIDMuNDkyMTUgMjIuMzk4OSA0LjE3ODE2IDIyLjc0ODVDNC40NDIzIDIyLjg4MyA0Ljg0MjcgMjMuMDA1MiA1LjY4MDE0IDIzLjA3MzZDNS45Nzk5NCAyMy4wOTgxIDYuMDY5NDYgMjMuMTE0MyA2LjEyODYyIDIzLjEyNUM2LjIzOTc2IDIzLjE0NTEgNi4yNDM3NiAyMy4xNDU4IDcuMzMzMzMgMjMuMTQ1OEgxMkMxMy4wODk2IDIzLjE0NTggMTMuMDkzNiAyMy4xNDUxIDEzLjIwNDcgMjMuMTI1QzEzLjI2MzkgMjMuMTE0MyAxMy4zNTM0IDIzLjA5ODEgMTMuNjUzMiAyMy4wNzM2QzE0LjM3NDkgMjMuMDE0NyAxNC43NzIgMjIuOTE1OCAxNS4wMzcgMjIuODAzNFpNMzQuMjg3MyAyMy4wMzRDMzQuNDA2NSAyMy4wNDg2IDM0LjUzNjkgMjMuMDYxOSAzNC42ODAxIDIzLjA3MzZDMzQuOTc5OSAyMy4wOTgxIDM1LjA2OTUgMjMuMTE0MyAzNS4xMjg2IDIzLjEyNUMzNS4yMzk4IDIzLjE0NTEgMzUuMjQzOCAyMy4xNDU4IDM2LjMzMzMgMjMuMTQ1OEg0MUM0Mi4wODk2IDIzLjE0NTggNDIuMDkzNiAyMy4xNDUxIDQyLjIwNDcgMjMuMTI1QzQyLjI2MzkgMjMuMTE0MyA0Mi4zNTM0IDIzLjA5ODEgNDIuNjUzMiAyMy4wNzM2QzQzLjQ5MDYgMjMuMDA1MiA0My44OTEgMjIuODgzIDQ0LjE1NTIgMjIuNzQ4NUM0NC44NDEyIDIyLjM5ODkgNDUuMzk4OSAyMS44NDEyIDQ1Ljc0ODUgMjEuMTU1MkM0NS44ODMgMjAuODkxIDQ2LjAwNTIgMjAuNDkwNiA0Ni4wNzM2IDE5LjY1MzJDNDYuMTQ0MSAxOC43OTAyIDQ2LjE0NTggMTYuNjY5NiA0Ni4xNDU4IDE1VjEwLjMzMzNDNDYuMTQ1OCA4LjY2Mzc1IDQ2LjE0NDEgNi41NDMxMiA0Ni4wNzM2IDUuNjgwMTRDNDYuMDA1MiA0Ljg0MjcgNDUuODgzIDQuNDQyMyA0NS43NDg1IDQuMTc4MTZDNDUuMzk4OSAzLjQ5MjE1IDQ0Ljg0MTIgMi45MzQ0MSA0NC4xNTUyIDIuNTg0ODdDNDMuODkxIDIuNDUwMjkgNDMuNDkwNiAyLjMyODEzIDQyLjY1MzIgMi4yNTk3MUM0Mi4zNTM0IDIuMjM1MjEgNDIuMjYzOSAyLjIxOTAyIDQyLjIwNDcgMi4yMDgzMkM0Mi4wOTM2IDIuMTg4MjIgNDIuMDg5NiAyLjE4NzUgNDEgMi4xODc1SDM2LjMzMzNDMzUuMjQzOCAyLjE4NzUgMzUuMjM5OCAyLjE4ODIyIDM1LjEyODYgMi4yMDgzMkMzNS4wNjk1IDIuMjE5MDIgMzQuOTc5OSAyLjIzNTIxIDM0LjY4MDEgMi4yNTk3MUMzMy44NDI3IDIuMzI4MTMgMzMuNDQyMyAyLjQ1MDI5IDMzLjE3ODIgMi41ODQ4N0MzMi40OTIyIDIuOTM0NDEgMzEuOTM0NCAzLjQ5MjE1IDMxLjU4NDkgNC4xNzgxNkMzMS40ODg1IDQuMzY3MzIgMzEuMzk4NSA0LjYyNjM3IDMxLjMzIDUuMDY1NzlDMzIuMzQ0NCA1LjYyODU3IDMzLjE2OTUgNi40ODE5OCAzMy42OTc1IDcuNTE4MzdDMzQuMzMzMyA4Ljc2NjE5IDM0LjMzMzMgMTEuMzk5NyAzNC4zMzMzIDE0LjY2NjZWMTUuMTY2N0g0My42NjY3QzQ0LjIxODkgMTUuMTY2NyA0NC42NjY3IDE1LjYxNDQgNDQuNjY2NyAxNi4xNjY3QzQ0LjY2NjcgMTYuNzE5IDQ0LjIxODkgMTcuMTY2NyA0My42NjY3IDE3LjE2NjdIMzQuMzMzM1YxOS4xNjY3SDQzLjY2NjdDNDQuMjE4OSAxOS4xNjY3IDQ0LjY2NjcgMTkuNjE0NCA0NC42NjY3IDIwLjE2NjdDNDQuNjY2NyAyMC43MTkgNDQuMjE4OSAyMS4xNjY3IDQzLjY2NjcgMjEuMTY2N0gzNC4zMjg2QzM0LjMyMzMgMjEuODMwMyAzNC4zMTE4IDIyLjQ1NTQgMzQuMjg3MyAyMy4wMzRaTTMuNjY2NjYgNS4xNjY2OUMzLjY2NjY2IDQuNjE0NCA0LjExNDM3IDQuMTY2NjkgNC42NjY2NiA0LjE2NjY5SDE0LjY2NjdDMTUuMjE4OSA0LjE2NjY5IDE1LjY2NjcgNC42MTQ0IDE1LjY2NjcgNS4xNjY2OUMxNS42NjY3IDUuNzE4OTcgMTUuMjE4OSA2LjE2NjY5IDE0LjY2NjcgNi4xNjY2OUg0LjY2NjY2QzQuMTE0MzcgNi4xNjY2OSAzLjY2NjY2IDUuNzE4OTcgMy42NjY2NiA1LjE2NjY5Wk0zMi42NjY3IDUuMTY2NjlDMzIuNjY2NyA0LjYxNDQgMzMuMTE0NCA0LjE2NjY5IDMzLjY2NjcgNC4xNjY2OUg0My42NjY3QzQ0LjIxODkgNC4xNjY2OSA0NC42NjY3IDQuNjE0NCA0NC42NjY3IDUuMTY2NjlDNDQuNjY2NyA1LjcxODk3IDQ0LjIxODkgNi4xNjY2OSA0My42NjY3IDYuMTY2NjlIMzMuNjY2N0MzMy4xMTQ0IDYuMTY2NjkgMzIuNjY2NyA1LjcxODk3IDMyLjY2NjcgNS4xNjY2OVpNMjIuMzMzMyA2LjUyMDgxSDI3QzI4LjA4OTYgNi41MjA4MSAyOC4wOTM2IDYuNTIxNTQgMjguMjA0NyA2LjU0MTY0QzI4LjI2MzkgNi41NTIzNCAyOC4zNTM0IDYuNTY4NTMgMjguNjUzMiA2LjU5MzAyQzI5LjQ5MDYgNi42NjE0NCAyOS44OTEgNi43ODM2IDMwLjE1NTIgNi45MTgxOEMzMC44NDEyIDcuMjY3NzIgMzEuMzk4OSA3LjgyNTQ2IDMxLjc0ODUgOC41MTE0N0MzMS44ODMgOC43NzU2MSAzMi4wMDUyIDkuMTc2MDEgMzIuMDczNiAxMC4wMTM1QzMyLjE0NDEgMTAuODc2NCAzMi4xNDU4IDEyLjk5NzEgMzIuMTQ1OCAxNC42NjY2VjE5LjMzMzNDMzIuMTQ1OCAyMS4wMDI5IDMyLjE0NDEgMjMuMTIzNSAzMi4wNzM2IDIzLjk4NjVDMzIuMDA1MiAyNC44MjM5IDMxLjg4MyAyNS4yMjQzIDMxLjc0ODUgMjUuNDg4NUMzMS4zOTg5IDI2LjE3NDUgMzAuODQxMiAyNi43MzIyIDMwLjE1NTIgMjcuMDgxOEMyOS44OTEgMjcuMjE2NCAyOS40OTA2IDI3LjMzODUgMjguNjUzMiAyNy40MDY5QzI4LjM1MzQgMjcuNDMxNCAyOC4yNjM5IDI3LjQ0NzYgMjguMjA0NyAyNy40NTgzQzI4LjA5MzYgMjcuNDc4NCAyOC4wODk2IDI3LjQ3OTEgMjcgMjcuNDc5MUgyMi4zMzMzQzIxLjI0MzggMjcuNDc5MSAyMS4yMzk4IDI3LjQ3ODQgMjEuMTI4NiAyNy40NTgzQzIxLjA2OTUgMjcuNDQ3NiAyMC45Nzk5IDI3LjQzMTQgMjAuNjgwMSAyNy40MDY5QzE5Ljg0MjcgMjcuMzM4NSAxOS40NDIzIDI3LjIxNjQgMTkuMTc4MiAyNy4wODE4QzE4LjQ5MjIgMjYuNzMyMiAxNy45MzQ0IDI2LjE3NDUgMTcuNTg0OSAyNS40ODg1QzE3LjQ1MDMgMjUuMjI0MyAxNy4zMjgxIDI0LjgyMzkgMTcuMjU5NyAyMy45ODY1QzE3LjE4OTIgMjMuMTIzNSAxNy4xODc1IDIxLjAwMjkgMTcuMTg3NSAxOS4zMzMzVjE0LjY2NjZDMTcuMTg3NSAxMi45OTcxIDE3LjE4OTIgMTAuODc2NCAxNy4yNTk3IDEwLjAxMzVDMTcuMzI4MSA5LjE3NjAxIDE3LjQ1MDMgOC43NzU2MSAxNy41ODQ5IDguNTExNDdDMTcuOTM0NCA3LjgyNTQ2IDE4LjQ5MjIgNy4yNjc3MiAxOS4xNzgyIDYuOTE4MThDMTkuNDQyMyA2Ljc4MzYgMTkuODQyNyA2LjY2MTQ0IDIwLjY4MDEgNi41OTMwMkMyMC45Nzk5IDYuNTY4NTMgMjEuMDY5NSA2LjU1MjM0IDIxLjEyODYgNi41NDE2NEMyMS4yMzk4IDYuNTIxNTQgMjEuMjQzOCA2LjUyMDgxIDIyLjMzMzMgNi41MjA4MVpNMTguNjY2NyA5LjVDMTguNjY2NyA4Ljk0NzcyIDE5LjExNDQgOC41IDE5LjY2NjcgOC41SDI5LjY2NjdDMzAuMjE4OSA4LjUgMzAuNjY2NyA4Ljk0NzcyIDMwLjY2NjcgOS41QzMwLjY2NjcgMTAuMDUyMyAzMC4yMTg5IDEwLjUgMjkuNjY2NyAxMC41SDE5LjY2NjdDMTkuMTE0NCAxMC41IDE4LjY2NjcgMTAuMDUyMyAxOC42NjY3IDkuNVpNMTkuNjY2NyAxOS41QzE5LjExNDQgMTkuNSAxOC42NjY3IDE5Ljk0NzcgMTguNjY2NyAyMC41QzE4LjY2NjcgMjEuMDUyMyAxOS4xMTQ0IDIxLjUgMTkuNjY2NyAyMS41SDI5LjY2NjdDMzAuMjE4OSAyMS41IDMwLjY2NjcgMjEuMDUyMyAzMC42NjY3IDIwLjVDMzAuNjY2NyAxOS45NDc3IDMwLjIxODkgMTkuNSAyOS42NjY3IDE5LjVIMTkuNjY2N1pNMTguNjY2NyAyNC41QzE4LjY2NjcgMjMuOTQ3NyAxOS4xMTQ0IDIzLjUgMTkuNjY2NyAyMy41SDI5LjY2NjdDMzAuMjE4OSAyMy41IDMwLjY2NjcgMjMuOTQ3NyAzMC42NjY3IDI0LjVDMzAuNjY2NyAyNS4wNTIzIDMwLjIxODkgMjUuNSAyOS42NjY3IDI1LjVIMTkuNjY2N0MxOS4xMTQ0IDI1LjUgMTguNjY2NyAyNS4wNTIzIDE4LjY2NjcgMjQuNVoiIGNsaXAtcnVsZT0iZXZlbm9kZCIgZmlsbC1ydWxlPSJldmVub2RkIi8+JiN4YTs8L3N2Zz4=;fontFamily=VK Sans Display;fontSource=https%3A%2F%2Ffonts.googleapis.com%2Fcss%3Ffamily%3DArchitects%2BDaughter;fontSize=20;spacingTop=0;labelPosition=center;align=center;" parent="cCSclVaMRaV_BsZJ9kHP-1" vertex="1">
          <mxGeometry x="591" y="640" width="65.3" height="40" as="geometry" />
        </mxCell>
        <mxCell id="cCSclVaMRaV_BsZJ9kHP-31" value="Floating IP" style="shape=image;verticalLabelPosition=bottom;labelBackgroundColor=none;verticalAlign=top;aspect=fixed;imageAspect=0;image=data:image/svg+xml,PHN2ZyB4bWxucz0iaHR0cDovL3d3dy53My5vcmcvMjAwMC9zdmciIGZpbGw9Im5vbmUiIHZpZXdCb3g9IjAgMCAyOCAyOCIgaGVpZ2h0PSIyOCIgd2lkdGg9IjI4Ij4mI3hhOzxwYXRoIGZpbGw9IiMwMDc3RkYiIGQ9Ik05LjExNDYzIDguODk1ODRDOC41MTA1NyA4Ljg5NTg0IDguMDIwODggOS4zODU1MyA4LjAyMDg4IDkuOTg5NTlWMTguMDEwNEM4LjAyMDg4IDE4LjYxNDUgOC41MTA1NyAxOS4xMDQyIDkuMTE0NjMgMTkuMTA0MkM5LjcxODY5IDE5LjEwNDIgMTAuMjA4NCAxOC42MTQ1IDEwLjIwODQgMTguMDEwNFY5Ljk4OTU5QzEwLjIwODQgOS4zODU1MyA5LjcxODY5IDguODk1ODQgOS4xMTQ2MyA4Ljg5NTg0WiIvPiYjeGE7PHBhdGggZmlsbD0iIzAwNzdGRiIgZD0iTTE0LjA3NDEgOC44OTU4NEMxMy4yNjg3IDguODk1ODQgMTIuNjE1OCA5LjU0ODc2IDEyLjYxNTggMTAuMzU0MlYxOC4wMTA0QzEyLjYxNTggMTguNjE0NSAxMy4xMDU1IDE5LjEwNDIgMTMuNzA5NSAxOS4xMDQyQzE0LjMxMzYgMTkuMTA0MiAxNC44MDMzIDE4LjYxNDUgMTQuODAzMyAxOC4wMTA0VjE1Ljc1SDE2LjkxNzlDMTcuNDYyMyAxNS43NSAxNy45NTgxIDE1LjY2NzQgMTguNDA1MyAxNS41MDIxQzE4Ljg1MjYgMTUuMzI3MSAxOS4yMzY2IDE1LjA4ODkgMTkuNTU3NCAxNC43ODc1QzE5Ljg3ODMgMTQuNDc2NCAyMC4xMjYyIDE0LjExMTggMjAuMzAxMiAxMy42OTM4QzIwLjQ3NjIgMTMuMjc1NyAyMC41NjM3IDEyLjgxODggMjAuNTYzNyAxMi4zMjI5QzIwLjU2MzcgMTEuODI3MSAyMC40NzYyIDExLjM3MDEgMjAuMzAxMiAxMC45NTIxQzIwLjEyNjIgMTAuNTM0IDE5Ljg3ODMgMTAuMTc0MyAxOS41NTc0IDkuODcyOTNDMTkuMjM2NiA5LjU2MTgyIDE4Ljg1MjYgOS4zMjM2MiAxOC40MDUzIDkuMTU4MzRDMTcuOTU4MSA4Ljk4MzM0IDE3LjQ2MjMgOC44OTU4NCAxNi45MTc5IDguODk1ODRIMTQuMDc0MVpNMTcuODk0OSAxMy4zMjkyQzE3LjYzMjQgMTMuNTgyIDE3LjI4MjQgMTMuNzA4MyAxNi44NDQ5IDEzLjcwODNIMTQuODAzM1YxMC45Mzc1SDE2Ljg0NDlDMTcuMjgyNCAxMC45Mzc1IDE3LjYzMjQgMTEuMDY4OCAxNy44OTQ5IDExLjMzMTNDMTguMTY3MiAxMS41ODQgMTguMzAzMyAxMS45MTQ2IDE4LjMwMzMgMTIuMzIyOUMxOC4zMDMzIDEyLjczMTMgMTguMTY3MiAxMy4wNjY3IDE3Ljg5NDkgMTMuMzI5MloiIGNsaXAtcnVsZT0iZXZlbm9kZCIgZmlsbC1ydWxlPSJldmVub2RkIi8+JiN4YTs8cGF0aCBmaWxsPSIjMDA3N0ZGIiBkPSJNMi4zMzMzNCAxMS42NjY3QzIuMzMzMzQgOC4zOTk3IDIuMzMzMzQgNi43NjYyMiAyLjk2OTE0IDUuNTE4NEMzLjUyODQgNC40MjA3OSA0LjQyMDc5IDMuNTI4NCA1LjUxODQgMi45NjkxNEM2Ljc2NjIyIDIuMzMzMzQgOC4zOTk3IDIuMzMzMzQgMTEuNjY2NyAyLjMzMzM0SDE2LjMzMzNDMTkuNjAwMyAyLjMzMzM0IDIxLjIzMzggMi4zMzMzNCAyMi40ODE2IDIuOTY5MTRDMjMuNTc5MiAzLjUyODQgMjQuNDcxNiA0LjQyMDc5IDI1LjAzMDkgNS41MTg0QzI1LjY2NjcgNi43NjYyMiAyNS42NjY3IDguMzk5NyAyNS42NjY3IDExLjY2NjdWMTYuMzMzM0MyNS42NjY3IDE5LjYwMDMgMjUuNjY2NyAyMS4yMzM4IDI1LjAzMDkgMjIuNDgxNkMyNC40NzE2IDIzLjU3OTIgMjMuNTc5MiAyNC40NzE2IDIyLjQ4MTYgMjUuMDMwOUMyMS4yMzM4IDI1LjY2NjcgMTkuNjAwMyAyNS42NjY3IDE2LjMzMzMgMjUuNjY2N0gxMS42NjY3QzguMzk5NyAyNS42NjY3IDYuNzY2MjIgMjUuNjY2NyA1LjUxODQgMjUuMDMwOUM0LjQyMDc5IDI0LjQ3MTYgMy41Mjg0IDIzLjU3OTIgMi45NjkxNCAyMi40ODE2QzIuMzMzMzQgMjEuMjMzOCAyLjMzMzM0IDE5LjYwMDMgMi4zMzMzNCAxNi4zMzMzVjExLjY2NjdaTTExLjY2NjcgNC41MjA4NEgxNi4zMzMzQzE4LjAwMjkgNC41MjA4NCAxOS4xMjM2IDQuNTIyNTQgMTkuOTg2NSA0LjU5MzA1QzIwLjgyNCA0LjY2MTQ3IDIxLjIyNDQgNC43ODM2MyAyMS40ODg1IDQuOTE4MjJDMjIuMTc0NSA1LjI2Nzc1IDIyLjczMjMgNS44MjU1IDIzLjA4MTggNi41MTE1QzIzLjIxNjQgNi43NzU2NCAyMy4zMzg1IDcuMTc2MDQgMjMuNDA3IDguMDEzNDlDMjMuNDc3NSA4Ljg3NjQ3IDIzLjQ3OTIgOS45OTcwOSAyMy40NzkyIDExLjY2NjdWMTYuMzMzM0MyMy40NzkyIDE4LjAwMjkgMjMuNDc3NSAxOS4xMjM2IDIzLjQwNyAxOS45ODY1QzIzLjMzODUgMjAuODI0IDIzLjIxNjQgMjEuMjI0NCAyMy4wODE4IDIxLjQ4ODVDMjIuNzMyMyAyMi4xNzQ1IDIyLjE3NDUgMjIuNzMyMyAyMS40ODg1IDIzLjA4MThDMjEuMjI0NCAyMy4yMTY0IDIwLjgyNCAyMy4zMzg1IDE5Ljk4NjUgMjMuNDA3QzE5LjEyMzYgMjMuNDc3NSAxOC4wMDI5IDIzLjQ3OTIgMTYuMzMzMyAyMy40NzkySDExLjY2NjdDOS45OTcwOSAyMy40NzkyIDguODc2NDcgMjMuNDc3NSA4LjAxMzQ5IDIzLjQwN0M3LjE3NjA0IDIzLjMzODUgNi43NzU2NCAyMy4yMTY0IDYuNTExNSAyMy4wODE4QzUuODI1NSAyMi43MzIzIDUuMjY3NzUgMjIuMTc0NSA0LjkxODIyIDIxLjQ4ODVDNC43ODM2MyAyMS4yMjQ0IDQuNjYxNDcgMjAuODI0IDQuNTkzMDUgMTkuOTg2NUM0LjUyMjU0IDE5LjEyMzYgNC41MjA4NCAxOC4wMDI5IDQuNTIwODQgMTYuMzMzM1YxMS42NjY3QzQuNTIwODQgOS45OTcwOSA0LjUyMjU0IDguODc2NDcgNC41OTMwNSA4LjAxMzQ5QzQuNjYxNDcgNy4xNzYwNCA0Ljc4MzYzIDYuNzc1NjQgNC45MTgyMiA2LjUxMTVDNS4yNjc3NSA1LjgyNTUgNS44MjU1IDUuMjY3NzUgNi41MTE1IDQuOTE4MjJDNi43NzU2NCA0Ljc4MzYzIDcuMTc2MDQgNC42NjE0NyA4LjAxMzQ5IDQuNTkzMDVDOC44NzY0NyA0LjUyMjU0IDkuOTk3MDkgNC41MjA4NCAxMS42NjY3IDQuNTIwODRaIiBjbGlwLXJ1bGU9ImV2ZW5vZGQiIGZpbGwtcnVsZT0iZXZlbm9kZCIvPiYjeGE7PC9zdmc+;fontFamily=VK Sans Display;fontSource=https%3A%2F%2Ffonts.googleapis.com%2Fcss%3Ffamily%3DArchitects%2BDaughter;fontSize=20;" parent="cCSclVaMRaV_BsZJ9kHP-1" vertex="1">
          <mxGeometry x="290" y="770" width="40" height="40" as="geometry" />
        </mxCell>
        <mxCell id="cCSclVaMRaV_BsZJ9kHP-33" value="Cloud router&amp;nbsp;" style="shape=image;verticalLabelPosition=bottom;labelBackgroundColor=none;verticalAlign=top;aspect=fixed;imageAspect=0;image=data:image/svg+xml,PHN2ZyB4bWxucz0iaHR0cDovL3d3dy53My5vcmcvMjAwMC9zdmciIGZpbGw9Im5vbmUiIHZpZXdCb3g9IjAgMCAzMiAzMiIgaGVpZ2h0PSIzMiIgd2lkdGg9IjMyIj4mI3hhOzxwYXRoIGZpbGw9IiMwMDc3RkYiIGQ9Ik0zLjMxNDI4IDE2QzMuMzE0MjggOC45OTM4NyA4Ljk5Mzg3IDMuMzE0MjggMTYgMy4zMTQyOEMyMy4wMDYxIDMuMzE0MjggMjguNjg1NyA4Ljk5Mzg3IDI4LjY4NTcgMTZDMjguNjg1NyAyMy4wMDYxIDIzLjAwNjEgMjguNjg1NyAxNiAyOC42ODU3QzguOTkzODcgMjguNjg1NyAzLjMxNDI4IDIzLjAwNjEgMy4zMTQyOCAxNlpNMTYgMS4yNTcxNEM3Ljg1Nzc0IDEuMjU3MTQgMS4yNTcxNCA3Ljg1Nzc0IDEuMjU3MTQgMTZDMS4yNTcxNCAyNC4xNDIzIDcuODU3NzQgMzAuNzQyOSAxNiAzMC43NDI5QzI0LjE0MjMgMzAuNzQyOSAzMC43NDI5IDI0LjE0MjMgMzAuNzQyOSAxNkMzMC43NDI5IDcuODU3NzQgMjQuMTQyMyAxLjI1NzE0IDE2IDEuMjU3MTRaTTE5LjUxNzMgNy4zMjYyNUMxOS44NzQzIDcuNjYxMSAxOS44ODgxIDguMjE3NTYgMTkuNTQ4MSA4LjU2OTE1QzE5LjIwOCA4LjkyMDczIDE4LjY0MjggOC45MzQzMSAxOC4yODU3IDguNTk5NDZMMTYuODkyOSA3LjUwMTgzVjE4LjkzMDRMMTYuODkyOCAxOC45MzlWMjQuNDk4MkwxOC4yODU3IDIzLjQwMDVDMTguNjQyOCAyMy4wNjU3IDE5LjIwOCAyMy4wNzkzIDE5LjU0OCAyMy40MzA5QzE5Ljg4ODEgMjMuNzgyNCAxOS44NzQzIDI0LjMzODkgMTkuNTE3MyAyNC42NzM3TDE2LjYxNTggMjcuMTg2MUMxNi4yNzA5IDI3LjUwOTQgMTUuNzI5MSAyNy41MDk0IDE1LjM4NDIgMjcuMTg2MUwxMi40ODI4IDI0LjY3MzdDMTIuMTI1NyAyNC4zMzg5IDEyLjExMTkgMjMuNzgyNCAxMi40NTIgMjMuNDMwOUMxMi43OTIgMjMuMDc5MyAxMy4zNTcyIDIzLjA2NTcgMTMuNzE0MyAyMy40MDA1TDE1LjEwNzEgMjQuNDk4MkwxNS4xMDcxIDEzLjA2OTZMMTUuMTA3MiAxMy4wNjA5VjcuNTAxODNMMTMuNzE0MyA4LjU5OTQ2QzEzLjM1NzIgOC45MzQzMSAxMi43OTIgOC45MjA3MyAxMi40NTIgOC41NjkxNUMxMi4xMTE5IDguMjE3NTYgMTIuMTI1NyA3LjY2MTEgMTIuNDgyOCA3LjMyNjI1TDE1LjM4NDMgNC44MTM5NUMxNS43MjkxIDQuNDkwNTkgMTYuMjcxIDQuNDkwNTkgMTYuNjE1OCA0LjgxMzk1TDE5LjUxNzMgNy4zMjYyNVpNMTAuMDk3NSAxOS45MTM4QzEwLjQ0OTEgMjAuMjUzOSAxMS4wMDU2IDIwLjI0MDEgMTEuMzQwNCAxOS44ODNMMTMuODUyNyAxNi45ODE2QzE0LjE3NjEgMTYuNjM2NyAxNC4xNzYxIDE2LjA5NDkgMTMuODUyNyAxNS43NUwxMS4zNDA0IDEyLjg0ODVDMTEuMDA1NiAxMi40OTE0IDEwLjQ0OTEgMTIuNDc3NyAxMC4wOTc1IDEyLjgxNzdDOS43NDU5NCAxMy4xNTc4IDkuNzMyMzYgMTMuNzIzIDEwLjA2NzIgMTQuMDgwMUwxMS4xNjQ4IDE1LjQ3MjlINS40NTA1NEM0Ljk2NTAyIDE1LjQ3MjkgNC41NzE0MiAxNS44NzI3IDQuNTcxNDIgMTYuMzY1OEM0LjU3MTQyIDE2Ljg1ODkgNC45NjUwMSAxNy4yNTg3IDUuNDUwNTQgMTcuMjU4N0wxMS4xNjQ4IDE3LjI1ODdMMTAuMDY3MiAxOC42NTE1QzkuNzMyMzYgMTkuMDA4NiA5Ljc0NTk0IDE5LjU3MzcgMTAuMDk3NSAxOS45MTM4Wk0yMC42NjM0IDEyLjg0ODVDMjAuOTk4MiAxMi40OTE0IDIxLjU1NDcgMTIuNDc3NyAyMS45MDYzIDEyLjgxNzdDMjIuMjU3OSAxMy4xNTc4IDIyLjI3MTUgMTMuNzIzIDIxLjkzNjYgMTQuMDhMMjAuODM5IDE1LjQ3MjlIMjYuNTUzM0MyNy4wMzg4IDE1LjQ3MjkgMjcuNDMyNCAxNS44NzI2IDI3LjQzMjQgMTYuMzY1OEMyNy40MzI0IDE2Ljg1ODkgMjcuMDM4OCAxNy4yNTg2IDI2LjU1MzMgMTcuMjU4NkgyMC44MzlMMjEuOTM2NiAxOC42NTE1QzIyLjI3MTUgMTkuMDA4NiAyMi4yNTc5IDE5LjU3MzcgMjEuOTA2MyAxOS45MTM4QzIxLjU1NDcgMjAuMjUzOSAyMC45OTgyIDIwLjI0MDEgMjAuNjYzNCAxOS44ODNMMTguMTUxMSAxNi45ODE1QzE3LjgyNzcgMTYuNjM2NyAxNy44Mjc3IDE2LjA5NDggMTguMTUxMSAxNS43NUwyMC42NjM0IDEyLjg0ODVaIiBjbGlwLXJ1bGU9ImV2ZW5vZGQiIGZpbGwtcnVsZT0iZXZlbm9kZCIvPiYjeGE7PC9zdmc+;fontSize=20;fontFamily=VK Sans Display;fontSource=https%3A%2F%2Ffonts.googleapis.com%2Fcss%3Ffamily%3DArchitects%2BDaughter;html=1;" parent="cCSclVaMRaV_BsZJ9kHP-1" vertex="1">
          <mxGeometry x="128" y="640" width="40" height="40" as="geometry" />
        </mxCell>
        <mxCell id="dBfaUdrEp3wIECNhfRmq-0" value="Servers" style="shape=image;verticalLabelPosition=bottom;labelBackgroundColor=none;verticalAlign=top;aspect=fixed;imageAspect=0;image=data:image/svg+xml,PHN2ZyB4bWxucz0iaHR0cDovL3d3dy53My5vcmcvMjAwMC9zdmciIGZpbGw9Im5vbmUiIHZpZXdCb3g9IjAgMCA0OSAzMCIgaGVpZ2h0PSIzMCIgd2lkdGg9IjQ5Ij4mI3hhOzxwYXRoIGZpbGw9IiMwMDc3RkYiIGQ9Ik0wIDEwLjMzMzNDMCA3LjA2NjM2IDAgNC40MzI4NyAwLjYzNTc5NiAzLjE4NTA2QzEuMTk1MDYgMi4wODc0NCAyLjA4NzQ0IDEuMTk1MDYgMy4xODUwNiAwLjYzNTc5NUMzLjMxMDkyIDAuNTcxNjYyIDMuNDIwMzcgMC41MTM5OTggMy41MTg3NyAwLjQ2MjE1QzMuNzQ5NCAwLjM0MDYzNSAzLjkxOTM5IDAuMjUxMDcxIDQuMDk4MDcgMC4xODUwNTZDNC41OTg5OCAwIDUuMTY4MjUgMCA3LjMzMzMzIDBIMTJDMTQuMTY1MSAwIDE0LjczNDQgMCAxNS4yMzUzIDAuMTg1MDU2QzE1LjQxMzkgMC4yNTEwNzEgMTUuNTgzOSAwLjM0MDYzNSAxNS44MTQ2IDAuNDYyMTVDMTUuOTEyOSAwLjUxMzk4OCAxNi4wMjI0IDAuNTcxNjc3IDE2LjE0ODMgMC42MzU3OTVDMTcuMjQ1OSAxLjE5NTA2IDE4LjEzODMgMi4wODc0NCAxOC42OTc1IDMuMTg1MDZDMTguODczMiAzLjUyOTc2IDE5LjAwMDMgMy45ODAyIDE5LjA5MjMgNC41MjA1MkMxOS4wOTQyIDQuNTE5OCAxOS4wOTYxIDQuNTE5MDggMTkuMDk4MSA0LjUxODM3QzE5LjU5OSA0LjMzMzMxIDIwLjE2ODMgNC4zMzMzMSAyMi4zMzMzIDQuMzMzMzFIMjdDMjguMTA0NSA0LjMzMzMxIDI4Ljc5MzYgNC4zMzMzMSAyOS4yNzAzIDQuMzU3ODhDMjkuMzU5NSAzLjg4OTM0IDI5LjQ3ODEgMy40OTQ1NyAyOS42MzU4IDMuMTg1MDZDMzAuMTk1MSAyLjA4NzQ0IDMxLjA4NzQgMS4xOTUwNiAzMi4xODUxIDAuNjM1Nzk1QzMyLjMxMDkgMC41NzE2NjIgMzIuNDIwNCAwLjUxMzk5OCAzMi41MTg4IDAuNDYyMTVDMzIuNzQ5NCAwLjM0MDYzNSAzMi45MTk0IDAuMjUxMDcxIDMzLjA5ODEgMC4xODUwNTZDMzMuNTk5IDAgMzQuMTY4MyAwIDM2LjMzMzMgMEg0MUM0My4xNjUxIDAgNDMuNzM0NCAwIDQ0LjIzNTMgMC4xODUwNTZDNDQuNDEzOSAwLjI1MTA3MSA0NC41ODM5IDAuMzQwNjM1IDQ0LjgxNDYgMC40NjIxNUM0NC45MTI5IDAuNTEzOTg4IDQ1LjAyMjQgMC41NzE2NzcgNDUuMTQ4MyAwLjYzNTc5NUM0Ni4yNDU5IDEuMTk1MDYgNDcuMTM4MyAyLjA4NzQ0IDQ3LjY5NzUgMy4xODUwNkM0OC4zMzMzIDQuNDMyODcgNDguMzMzMyA3LjA2NjM2IDQ4LjMzMzMgMTAuMzMzM1YxNUM0OC4zMzMzIDE4LjI2NyA0OC4zMzMzIDIwLjkwMDUgNDcuNjk3NSAyMi4xNDgzQzQ3LjEzODMgMjMuMjQ1OSA0Ni4yNDU5IDI0LjEzODMgNDUuMTQ4MyAyNC42OTc1QzQ1LjAyMjcgMjQuNzYxNSA0NC45MTM1IDI0LjgxOSA0NC44MTUzIDI0Ljg3MDhDNDQuNTg0NyAyNC45OTIzIDQ0LjQxMzkgMjUuMDgyMyA0NC4yMzUzIDI1LjE0ODNDNDMuNzM0NCAyNS4zMzMzIDQzLjE2NTEgMjUuMzMzMyA0MSAyNS4zMzMzSDM2LjMzMzNDMzUuMjI4OSAyNS4zMzMzIDM0LjUzOTcgMjUuMzMzMyAzNC4wNjMgMjUuMzA4OEMzMy45NzM4IDI1Ljc3NzMgMzMuODU1MiAyNi4xNzIxIDMzLjY5NzUgMjYuNDgxNkMzMy4xMzgzIDI3LjU3OTIgMzIuMjQ1OSAyOC40NzE2IDMxLjE0ODMgMjkuMDMwOEMzMS4wMjI2IDI5LjA5NDkgMzAuOTEzMiAyOS4xNTI1IDMwLjgxNDkgMjkuMjA0M0MzMC41ODQzIDI5LjMyNTggMzAuNDEzOSAyOS40MTU2IDMwLjIzNTMgMjkuNDgxNkMyOS43MzQ0IDI5LjY2NjYgMjkuMTY1MSAyOS42NjY2IDI3IDI5LjY2NjZIMjIuMzMzM0MyMC4xNjgzIDI5LjY2NjYgMTkuNTk5IDI5LjY2NjYgMTkuMDk4MSAyOS40ODE2QzE4LjkxOTQgMjkuNDE1NiAxOC43NDk0IDI5LjMyNiAxOC41MTg4IDI5LjIwNDVDMTguNDIwNCAyOS4xNTI3IDE4LjMxMDkgMjkuMDk1IDE4LjE4NTEgMjkuMDMwOEMxNy4wODc0IDI4LjQ3MTYgMTYuMTk1MSAyNy41NzkyIDE1LjYzNTggMjYuNDgxNkMxNS40NjAyIDI2LjEzNjkgMTUuMzMzIDI1LjY4NjUgMTUuMjQxIDI1LjE0NjFDMTUuMjM5MSAyNS4xNDY4IDE1LjIzNzIgMjUuMTQ3NiAxNS4yMzUzIDI1LjE0ODNDMTQuNzM0NCAyNS4zMzMzIDE0LjE2NTEgMjUuMzMzMyAxMiAyNS4zMzMzSDcuMzMzMzNDNS4xNjgyNSAyNS4zMzMzIDQuNTk4OTggMjUuMzMzMyA0LjA5ODA3IDI1LjE0ODNDMy45MTkzOSAyNS4wODIzIDMuNzQ5NDEgMjQuOTkyNyAzLjUxODc4IDI0Ljg3MTJDMy40MjA0MSAyNC44MTk0IDMuMzEwODggMjQuNzYxNiAzLjE4NTA2IDI0LjY5NzVDMi4wODc0NCAyNC4xMzgzIDEuMTk1MDYgMjMuMjQ1OSAwLjYzNTc5NiAyMi4xNDgzQzAgMjAuOTAwNSAwIDE4LjI2NyAwIDE1VjEwLjMzMzNaTTE1LjAzNyAyMi44MDM0QzE1LjAxOCAyMi4yNzMxIDE1LjAwODggMjEuNzA2MSAxNS4wMDQzIDIxLjEwODNDMTQuODk4OCAyMS4xNDYxIDE0Ljc4NTEgMjEuMTY2NyAxNC42NjY3IDIxLjE2NjdINC42NjY2NkM0LjExNDM3IDIxLjE2NjcgMy42NjY2NiAyMC43MTkgMy42NjY2NiAyMC4xNjY3QzMuNjY2NjYgMTkuNjE0NCA0LjExNDM3IDE5LjE2NjcgNC42NjY2NiAxOS4xNjY3SDE0LjY2NjdDMTQuNzgzNSAxOS4xNjY3IDE0Ljg5NTcgMTkuMTg2NyAxNSAxOS4yMjM2VjE3LjEwOThDMTQuODk1NyAxNy4xNDY2IDE0Ljc4MzUgMTcuMTY2NyAxNC42NjY3IDE3LjE2NjdINC42NjY2NkM0LjExNDM3IDE3LjE2NjcgMy42NjY2NiAxNi43MTkgMy42NjY2NiAxNi4xNjY3QzMuNjY2NjYgMTUuNjE0NCA0LjExNDM3IDE1LjE2NjcgNC42NjY2NiAxNS4xNjY3SDE0LjY2NjdDMTQuNzgzNSAxNS4xNjY3IDE0Ljg5NTcgMTUuMTg2NyAxNSAxNS4yMjM2VjE0LjY2NjZDMTUgMTEuMzk5NyAxNSA4Ljc2NjE5IDE1LjYzNTggNy41MTgzN0MxNS45OTE4IDYuODE5NzQgMTYuNDgyNyA2LjIwNDI2IDE3LjA3NTYgNS43MDQ4OUMxNy4wNzQ5IDUuNjk2NTMgMTcuMDc0MyA1LjY4ODI4IDE3LjA3MzYgNS42ODAxNEMxNy4wMDUyIDQuODQyNyAxNi44ODMgNC40NDIzIDE2Ljc0ODUgNC4xNzgxNkMxNi4zOTg5IDMuNDkyMTUgMTUuODQxMiAyLjkzNDQxIDE1LjE1NTIgMi41ODQ4N0MxNC44OTEgMi40NTAyOSAxNC40OTA2IDIuMzI4MTMgMTMuNjUzMiAyLjI1OTcxQzEzLjM1MzQgMi4yMzUyMSAxMy4yNjM5IDIuMjE5MDIgMTMuMjA0NyAyLjIwODMyQzEzLjA5MzYgMi4xODgyMiAxMy4wODk2IDIuMTg3NSAxMiAyLjE4NzVINy4zMzMzM0M2LjI0Mzc3IDIuMTg3NSA2LjIzOTc2IDIuMTg4MjIgNi4xMjg2MiAyLjIwODMyQzYuMDY5NDYgMi4yMTkwMiA1Ljk3OTk0IDIuMjM1MjEgNS42ODAxNCAyLjI1OTcxQzQuODQyNyAyLjMyODEzIDQuNDQyMyAyLjQ1MDI5IDQuMTc4MTYgMi41ODQ4N0MzLjQ5MjE1IDIuOTM0NDEgMi45MzQ0MSAzLjQ5MjE1IDIuNTg0ODcgNC4xNzgxNkMyLjQ1MDI5IDQuNDQyMyAyLjMyODEzIDQuODQyNyAyLjI1OTcxIDUuNjgwMTRDMi4xODkyIDYuNTQzMTIgMi4xODc1IDguNjYzNzUgMi4xODc1IDEwLjMzMzNWMTVDMi4xODc1IDE2LjY2OTYgMi4xODkyIDE4Ljc5MDIgMi4yNTk3MSAxOS42NTMyQzIuMzI4MTMgMjAuNDkwNiAyLjQ1MDI5IDIwLjg5MSAyLjU4NDg3IDIxLjE1NTJDMi45MzQ0MSAyMS44NDEyIDMuNDkyMTUgMjIuMzk4OSA0LjE3ODE2IDIyLjc0ODVDNC40NDIzIDIyLjg4MyA0Ljg0MjcgMjMuMDA1MiA1LjY4MDE0IDIzLjA3MzZDNS45Nzk5NCAyMy4wOTgxIDYuMDY5NDYgMjMuMTE0MyA2LjEyODYyIDIzLjEyNUM2LjIzOTc2IDIzLjE0NTEgNi4yNDM3NiAyMy4xNDU4IDcuMzMzMzMgMjMuMTQ1OEgxMkMxMy4wODk2IDIzLjE0NTggMTMuMDkzNiAyMy4xNDUxIDEzLjIwNDcgMjMuMTI1QzEzLjI2MzkgMjMuMTE0MyAxMy4zNTM0IDIzLjA5ODEgMTMuNjUzMiAyMy4wNzM2QzE0LjM3NDkgMjMuMDE0NyAxNC43NzIgMjIuOTE1OCAxNS4wMzcgMjIuODAzNFpNMzQuMjg3MyAyMy4wMzRDMzQuNDA2NSAyMy4wNDg2IDM0LjUzNjkgMjMuMDYxOSAzNC42ODAxIDIzLjA3MzZDMzQuOTc5OSAyMy4wOTgxIDM1LjA2OTUgMjMuMTE0MyAzNS4xMjg2IDIzLjEyNUMzNS4yMzk4IDIzLjE0NTEgMzUuMjQzOCAyMy4xNDU4IDM2LjMzMzMgMjMuMTQ1OEg0MUM0Mi4wODk2IDIzLjE0NTggNDIuMDkzNiAyMy4xNDUxIDQyLjIwNDcgMjMuMTI1QzQyLjI2MzkgMjMuMTE0MyA0Mi4zNTM0IDIzLjA5ODEgNDIuNjUzMiAyMy4wNzM2QzQzLjQ5MDYgMjMuMDA1MiA0My44OTEgMjIuODgzIDQ0LjE1NTIgMjIuNzQ4NUM0NC44NDEyIDIyLjM5ODkgNDUuMzk4OSAyMS44NDEyIDQ1Ljc0ODUgMjEuMTU1MkM0NS44ODMgMjAuODkxIDQ2LjAwNTIgMjAuNDkwNiA0Ni4wNzM2IDE5LjY1MzJDNDYuMTQ0MSAxOC43OTAyIDQ2LjE0NTggMTYuNjY5NiA0Ni4xNDU4IDE1VjEwLjMzMzNDNDYuMTQ1OCA4LjY2Mzc1IDQ2LjE0NDEgNi41NDMxMiA0Ni4wNzM2IDUuNjgwMTRDNDYuMDA1MiA0Ljg0MjcgNDUuODgzIDQuNDQyMyA0NS43NDg1IDQuMTc4MTZDNDUuMzk4OSAzLjQ5MjE1IDQ0Ljg0MTIgMi45MzQ0MSA0NC4xNTUyIDIuNTg0ODdDNDMuODkxIDIuNDUwMjkgNDMuNDkwNiAyLjMyODEzIDQyLjY1MzIgMi4yNTk3MUM0Mi4zNTM0IDIuMjM1MjEgNDIuMjYzOSAyLjIxOTAyIDQyLjIwNDcgMi4yMDgzMkM0Mi4wOTM2IDIuMTg4MjIgNDIuMDg5NiAyLjE4NzUgNDEgMi4xODc1SDM2LjMzMzNDMzUuMjQzOCAyLjE4NzUgMzUuMjM5OCAyLjE4ODIyIDM1LjEyODYgMi4yMDgzMkMzNS4wNjk1IDIuMjE5MDIgMzQuOTc5OSAyLjIzNTIxIDM0LjY4MDEgMi4yNTk3MUMzMy44NDI3IDIuMzI4MTMgMzMuNDQyMyAyLjQ1MDI5IDMzLjE3ODIgMi41ODQ4N0MzMi40OTIyIDIuOTM0NDEgMzEuOTM0NCAzLjQ5MjE1IDMxLjU4NDkgNC4xNzgxNkMzMS40ODg1IDQuMzY3MzIgMzEuMzk4NSA0LjYyNjM3IDMxLjMzIDUuMDY1NzlDMzIuMzQ0NCA1LjYyODU3IDMzLjE2OTUgNi40ODE5OCAzMy42OTc1IDcuNTE4MzdDMzQuMzMzMyA4Ljc2NjE5IDM0LjMzMzMgMTEuMzk5NyAzNC4zMzMzIDE0LjY2NjZWMTUuMTY2N0g0My42NjY3QzQ0LjIxODkgMTUuMTY2NyA0NC42NjY3IDE1LjYxNDQgNDQuNjY2NyAxNi4xNjY3QzQ0LjY2NjcgMTYuNzE5IDQ0LjIxODkgMTcuMTY2NyA0My42NjY3IDE3LjE2NjdIMzQuMzMzM1YxOS4xNjY3SDQzLjY2NjdDNDQuMjE4OSAxOS4xNjY3IDQ0LjY2NjcgMTkuNjE0NCA0NC42NjY3IDIwLjE2NjdDNDQuNjY2NyAyMC43MTkgNDQuMjE4OSAyMS4xNjY3IDQzLjY2NjcgMjEuMTY2N0gzNC4zMjg2QzM0LjMyMzMgMjEuODMwMyAzNC4zMTE4IDIyLjQ1NTQgMzQuMjg3MyAyMy4wMzRaTTMuNjY2NjYgNS4xNjY2OUMzLjY2NjY2IDQuNjE0NCA0LjExNDM3IDQuMTY2NjkgNC42NjY2NiA0LjE2NjY5SDE0LjY2NjdDMTUuMjE4OSA0LjE2NjY5IDE1LjY2NjcgNC42MTQ0IDE1LjY2NjcgNS4xNjY2OUMxNS42NjY3IDUuNzE4OTcgMTUuMjE4OSA2LjE2NjY5IDE0LjY2NjcgNi4xNjY2OUg0LjY2NjY2QzQuMTE0MzcgNi4xNjY2OSAzLjY2NjY2IDUuNzE4OTcgMy42NjY2NiA1LjE2NjY5Wk0zMi42NjY3IDUuMTY2NjlDMzIuNjY2NyA0LjYxNDQgMzMuMTE0NCA0LjE2NjY5IDMzLjY2NjcgNC4xNjY2OUg0My42NjY3QzQ0LjIxODkgNC4xNjY2OSA0NC42NjY3IDQuNjE0NCA0NC42NjY3IDUuMTY2NjlDNDQuNjY2NyA1LjcxODk3IDQ0LjIxODkgNi4xNjY2OSA0My42NjY3IDYuMTY2NjlIMzMuNjY2N0MzMy4xMTQ0IDYuMTY2NjkgMzIuNjY2NyA1LjcxODk3IDMyLjY2NjcgNS4xNjY2OVpNMjIuMzMzMyA2LjUyMDgxSDI3QzI4LjA4OTYgNi41MjA4MSAyOC4wOTM2IDYuNTIxNTQgMjguMjA0NyA2LjU0MTY0QzI4LjI2MzkgNi41NTIzNCAyOC4zNTM0IDYuNTY4NTMgMjguNjUzMiA2LjU5MzAyQzI5LjQ5MDYgNi42NjE0NCAyOS44OTEgNi43ODM2IDMwLjE1NTIgNi45MTgxOEMzMC44NDEyIDcuMjY3NzIgMzEuMzk4OSA3LjgyNTQ2IDMxLjc0ODUgOC41MTE0N0MzMS44ODMgOC43NzU2MSAzMi4wMDUyIDkuMTc2MDEgMzIuMDczNiAxMC4wMTM1QzMyLjE0NDEgMTAuODc2NCAzMi4xNDU4IDEyLjk5NzEgMzIuMTQ1OCAxNC42NjY2VjE5LjMzMzNDMzIuMTQ1OCAyMS4wMDI5IDMyLjE0NDEgMjMuMTIzNSAzMi4wNzM2IDIzLjk4NjVDMzIuMDA1MiAyNC44MjM5IDMxLjg4MyAyNS4yMjQzIDMxLjc0ODUgMjUuNDg4NUMzMS4zOTg5IDI2LjE3NDUgMzAuODQxMiAyNi43MzIyIDMwLjE1NTIgMjcuMDgxOEMyOS44OTEgMjcuMjE2NCAyOS40OTA2IDI3LjMzODUgMjguNjUzMiAyNy40MDY5QzI4LjM1MzQgMjcuNDMxNCAyOC4yNjM5IDI3LjQ0NzYgMjguMjA0NyAyNy40NTgzQzI4LjA5MzYgMjcuNDc4NCAyOC4wODk2IDI3LjQ3OTEgMjcgMjcuNDc5MUgyMi4zMzMzQzIxLjI0MzggMjcuNDc5MSAyMS4yMzk4IDI3LjQ3ODQgMjEuMTI4NiAyNy40NTgzQzIxLjA2OTUgMjcuNDQ3NiAyMC45Nzk5IDI3LjQzMTQgMjAuNjgwMSAyNy40MDY5QzE5Ljg0MjcgMjcuMzM4NSAxOS40NDIzIDI3LjIxNjQgMTkuMTc4MiAyNy4wODE4QzE4LjQ5MjIgMjYuNzMyMiAxNy45MzQ0IDI2LjE3NDUgMTcuNTg0OSAyNS40ODg1QzE3LjQ1MDMgMjUuMjI0MyAxNy4zMjgxIDI0LjgyMzkgMTcuMjU5NyAyMy45ODY1QzE3LjE4OTIgMjMuMTIzNSAxNy4xODc1IDIxLjAwMjkgMTcuMTg3NSAxOS4zMzMzVjE0LjY2NjZDMTcuMTg3NSAxMi45OTcxIDE3LjE4OTIgMTAuODc2NCAxNy4yNTk3IDEwLjAxMzVDMTcuMzI4MSA5LjE3NjAxIDE3LjQ1MDMgOC43NzU2MSAxNy41ODQ5IDguNTExNDdDMTcuOTM0NCA3LjgyNTQ2IDE4LjQ5MjIgNy4yNjc3MiAxOS4xNzgyIDYuOTE4MThDMTkuNDQyMyA2Ljc4MzYgMTkuODQyNyA2LjY2MTQ0IDIwLjY4MDEgNi41OTMwMkMyMC45Nzk5IDYuNTY4NTMgMjEuMDY5NSA2LjU1MjM0IDIxLjEyODYgNi41NDE2NEMyMS4yMzk4IDYuNTIxNTQgMjEuMjQzOCA2LjUyMDgxIDIyLjMzMzMgNi41MjA4MVpNMTguNjY2NyA5LjVDMTguNjY2NyA4Ljk0NzcyIDE5LjExNDQgOC41IDE5LjY2NjcgOC41SDI5LjY2NjdDMzAuMjE4OSA4LjUgMzAuNjY2NyA4Ljk0NzcyIDMwLjY2NjcgOS41QzMwLjY2NjcgMTAuMDUyMyAzMC4yMTg5IDEwLjUgMjkuNjY2NyAxMC41SDE5LjY2NjdDMTkuMTE0NCAxMC41IDE4LjY2NjcgMTAuMDUyMyAxOC42NjY3IDkuNVpNMTkuNjY2NyAxOS41QzE5LjExNDQgMTkuNSAxOC42NjY3IDE5Ljk0NzcgMTguNjY2NyAyMC41QzE4LjY2NjcgMjEuMDUyMyAxOS4xMTQ0IDIxLjUgMTkuNjY2NyAyMS41SDI5LjY2NjdDMzAuMjE4OSAyMS41IDMwLjY2NjcgMjEuMDUyMyAzMC42NjY3IDIwLjVDMzAuNjY2NyAxOS45NDc3IDMwLjIxODkgMTkuNSAyOS42NjY3IDE5LjVIMTkuNjY2N1pNMTguNjY2NyAyNC41QzE4LjY2NjcgMjMuOTQ3NyAxOS4xMTQ0IDIzLjUgMTkuNjY2NyAyMy41SDI5LjY2NjdDMzAuMjE4OSAyMy41IDMwLjY2NjcgMjMuOTQ3NyAzMC42NjY3IDI0LjVDMzAuNjY2NyAyNS4wNTIzIDMwLjIxODkgMjUuNSAyOS42NjY3IDI1LjVIMTkuNjY2N0MxOS4xMTQ0IDI1LjUgMTguNjY2NyAyNS4wNTIzIDE4LjY2NjcgMjQuNVoiIGNsaXAtcnVsZT0iZXZlbm9kZCIgZmlsbC1ydWxlPSJldmVub2RkIi8+JiN4YTs8L3N2Zz4=;fontFamily=VK Sans Display;fontSource=https%3A%2F%2Ffonts.googleapis.com%2Fcss%3Ffamily%3DArchitects%2BDaughter;fontSize=20;spacingTop=0;labelPosition=center;align=center;" vertex="1" parent="cCSclVaMRaV_BsZJ9kHP-1">
          <mxGeometry x="-740" y="642" width="65.3" height="40" as="geometry" />
        </mxCell>
        <mxCell id="b6NsYZ9JHDC7_DL7XxHp-0" value="Client router" style="shape=image;verticalLabelPosition=bottom;labelBackgroundColor=none;verticalAlign=top;aspect=fixed;imageAspect=0;image=data:image/svg+xml,PHN2ZyB4bWxucz0iaHR0cDovL3d3dy53My5vcmcvMjAwMC9zdmciIGZpbGw9Im5vbmUiIHZpZXdCb3g9IjAgMCAzMiAzMiIgaGVpZ2h0PSIzMiIgd2lkdGg9IjMyIj4mI3hhOzxwYXRoIGZpbGw9IiMwMDc3RkYiIGQ9Ik0zLjMxNDI4IDE2QzMuMzE0MjggOC45OTM4NyA4Ljk5Mzg3IDMuMzE0MjggMTYgMy4zMTQyOEMyMy4wMDYxIDMuMzE0MjggMjguNjg1NyA4Ljk5Mzg3IDI4LjY4NTcgMTZDMjguNjg1NyAyMy4wMDYxIDIzLjAwNjEgMjguNjg1NyAxNiAyOC42ODU3QzguOTkzODcgMjguNjg1NyAzLjMxNDI4IDIzLjAwNjEgMy4zMTQyOCAxNlpNMTYgMS4yNTcxNEM3Ljg1Nzc0IDEuMjU3MTQgMS4yNTcxNCA3Ljg1Nzc0IDEuMjU3MTQgMTZDMS4yNTcxNCAyNC4xNDIzIDcuODU3NzQgMzAuNzQyOSAxNiAzMC43NDI5QzI0LjE0MjMgMzAuNzQyOSAzMC43NDI5IDI0LjE0MjMgMzAuNzQyOSAxNkMzMC43NDI5IDcuODU3NzQgMjQuMTQyMyAxLjI1NzE0IDE2IDEuMjU3MTRaTTE5LjUxNzMgNy4zMjYyNUMxOS44NzQzIDcuNjYxMSAxOS44ODgxIDguMjE3NTYgMTkuNTQ4MSA4LjU2OTE1QzE5LjIwOCA4LjkyMDczIDE4LjY0MjggOC45MzQzMSAxOC4yODU3IDguNTk5NDZMMTYuODkyOSA3LjUwMTgzVjE4LjkzMDRMMTYuODkyOCAxOC45MzlWMjQuNDk4MkwxOC4yODU3IDIzLjQwMDVDMTguNjQyOCAyMy4wNjU3IDE5LjIwOCAyMy4wNzkzIDE5LjU0OCAyMy40MzA5QzE5Ljg4ODEgMjMuNzgyNCAxOS44NzQzIDI0LjMzODkgMTkuNTE3MyAyNC42NzM3TDE2LjYxNTggMjcuMTg2MUMxNi4yNzA5IDI3LjUwOTQgMTUuNzI5MSAyNy41MDk0IDE1LjM4NDIgMjcuMTg2MUwxMi40ODI4IDI0LjY3MzdDMTIuMTI1NyAyNC4zMzg5IDEyLjExMTkgMjMuNzgyNCAxMi40NTIgMjMuNDMwOUMxMi43OTIgMjMuMDc5MyAxMy4zNTcyIDIzLjA2NTcgMTMuNzE0MyAyMy40MDA1TDE1LjEwNzEgMjQuNDk4MkwxNS4xMDcxIDEzLjA2OTZMMTUuMTA3MiAxMy4wNjA5VjcuNTAxODNMMTMuNzE0MyA4LjU5OTQ2QzEzLjM1NzIgOC45MzQzMSAxMi43OTIgOC45MjA3MyAxMi40NTIgOC41NjkxNUMxMi4xMTE5IDguMjE3NTYgMTIuMTI1NyA3LjY2MTEgMTIuNDgyOCA3LjMyNjI1TDE1LjM4NDMgNC44MTM5NUMxNS43MjkxIDQuNDkwNTkgMTYuMjcxIDQuNDkwNTkgMTYuNjE1OCA0LjgxMzk1TDE5LjUxNzMgNy4zMjYyNVpNMTAuMDk3NSAxOS45MTM4QzEwLjQ0OTEgMjAuMjUzOSAxMS4wMDU2IDIwLjI0MDEgMTEuMzQwNCAxOS44ODNMMTMuODUyNyAxNi45ODE2QzE0LjE3NjEgMTYuNjM2NyAxNC4xNzYxIDE2LjA5NDkgMTMuODUyNyAxNS43NUwxMS4zNDA0IDEyLjg0ODVDMTEuMDA1NiAxMi40OTE0IDEwLjQ0OTEgMTIuNDc3NyAxMC4wOTc1IDEyLjgxNzdDOS43NDU5NCAxMy4xNTc4IDkuNzMyMzYgMTMuNzIzIDEwLjA2NzIgMTQuMDgwMUwxMS4xNjQ4IDE1LjQ3MjlINS40NTA1NEM0Ljk2NTAyIDE1LjQ3MjkgNC41NzE0MiAxNS44NzI3IDQuNTcxNDIgMTYuMzY1OEM0LjU3MTQyIDE2Ljg1ODkgNC45NjUwMSAxNy4yNTg3IDUuNDUwNTQgMTcuMjU4N0wxMS4xNjQ4IDE3LjI1ODdMMTAuMDY3MiAxOC42NTE1QzkuNzMyMzYgMTkuMDA4NiA5Ljc0NTk0IDE5LjU3MzcgMTAuMDk3NSAxOS45MTM4Wk0yMC42NjM0IDEyLjg0ODVDMjAuOTk4MiAxMi40OTE0IDIxLjU1NDcgMTIuNDc3NyAyMS45MDYzIDEyLjgxNzdDMjIuMjU3OSAxMy4xNTc4IDIyLjI3MTUgMTMuNzIzIDIxLjkzNjYgMTQuMDhMMjAuODM5IDE1LjQ3MjlIMjYuNTUzM0MyNy4wMzg4IDE1LjQ3MjkgMjcuNDMyNCAxNS44NzI2IDI3LjQzMjQgMTYuMzY1OEMyNy40MzI0IDE2Ljg1ODkgMjcuMDM4OCAxNy4yNTg2IDI2LjU1MzMgMTcuMjU4NkgyMC44MzlMMjEuOTM2NiAxOC42NTE1QzIyLjI3MTUgMTkuMDA4NiAyMi4yNTc5IDE5LjU3MzcgMjEuOTA2MyAxOS45MTM4QzIxLjU1NDcgMjAuMjUzOSAyMC45OTgyIDIwLjI0MDEgMjAuNjYzNCAxOS44ODNMMTguMTUxMSAxNi45ODE1QzE3LjgyNzcgMTYuNjM2NyAxNy44Mjc3IDE2LjA5NDggMTguMTUxMSAxNS43NUwyMC42NjM0IDEyLjg0ODVaIiBjbGlwLXJ1bGU9ImV2ZW5vZGQiIGZpbGwtcnVsZT0iZXZlbm9kZCIvPiYjeGE7PC9zdmc+;fontSize=20;fontFamily=VK Sans Display;fontSource=https%3A%2F%2Ffonts.googleapis.com%2Fcss%3Ffamily%3DArchitects%2BDaughter;" vertex="1" parent="cCSclVaMRaV_BsZJ9kHP-1">
          <mxGeometry x="-260" y="640" width="40" height="40" as="geometry" />
        </mxCell>
        <mxCell id="cCSclVaMRaV_BsZJ9kHP-23" value="&lt;font color=&quot;#212121&quot; style=&quot;font-size: 20px;&quot;&gt;Cloud Network&lt;/font&gt;" style="rounded=1;whiteSpace=wrap;html=1;fontFamily=VK Sans Display;strokeColor=none;arcsize=12;fillColor=#F6F7F9;spacing=0;spacingTop=12;spacingBottom=12;arcSize=12;absoluteArcSize=1;labelBorderColor=none;fontSize=20;strokeWidth=1;labelBackgroundColor=none;fontSource=https%3A%2F%2Ffonts.googleapis.com%2Fcss%3Ffamily%3DArchitects%2BDaughter;" parent="cCSclVaMRaV_BsZJ9kHP-1" vertex="1">
          <mxGeometry x="300" y="630" width="160" height="60" as="geometry" />
        </mxCell>
        <mxCell id="cCSclVaMRaV_BsZJ9kHP-3" value="&lt;b style=&quot;&quot;&gt;&lt;font style=&quot;font-size: 20px;&quot;&gt;&lt;br&gt;VK Cloud Network&lt;br&gt;&lt;/font&gt;&lt;/b&gt;" style="rounded=1;whiteSpace=wrap;html=1;strokeColor=#7C8A9A;strokeWidth=1;fontColor=default;fillColor=none;dashed=1;arcSize=12;absoluteArcSize=1;verticalAlign=top;fontSize=20;fontFamily=VK Sans Display;labelBackgroundColor=none;fontSource=https%3A%2F%2Ffonts.googleapis.com%2Fcss%3Ffamily%3DArchitects%2BDaughter;dashPattern=8 8;" parent="cCSclVaMRaV_BsZJ9kHP-1" vertex="1">
          <mxGeometry x="30" y="250" width="664" height="620" as="geometry" />
        </mxCell>
        <mxCell id="cCSclVaMRaV_BsZJ9kHP-4" style="edgeStyle=orthogonalEdgeStyle;rounded=0;hachureGap=4;orthogonalLoop=1;jettySize=auto;html=1;fontFamily=VK Sans Display;fontSource=https%3A%2F%2Ffonts.googleapis.com%2Fcss%3Ffamily%3DArchitects%2BDaughter;fontSize=11;endArrow=openThin;strokeColor=#7C8A9A;fontColor=#212121;strokeWidth=2;startArrow=oval;startFill=1;endFill=0;" parent="cCSclVaMRaV_BsZJ9kHP-1" source="cCSclVaMRaV_BsZJ9kHP-31" edge="1">
          <mxGeometry relative="1" as="geometry">
            <mxPoint x="624" y="715" as="targetPoint" />
          </mxGeometry>
        </mxCell>
        <mxCell id="cCSclVaMRaV_BsZJ9kHP-8" style="edgeStyle=none;shape=connector;rounded=0;orthogonalLoop=1;jettySize=auto;html=1;exitX=0;exitY=0.5;exitDx=0;exitDy=0;entryX=1;entryY=0.5;entryDx=0;entryDy=0;labelBackgroundColor=default;strokeColor=#7C8A9A;strokeWidth=2;align=center;verticalAlign=middle;fontFamily=VK Sans Display;fontSize=11;fontColor=#212121;startArrow=oval;startFill=1;endArrow=oval;endFill=1;" parent="cCSclVaMRaV_BsZJ9kHP-1" source="cCSclVaMRaV_BsZJ9kHP-11" edge="1">
          <mxGeometry relative="1" as="geometry">
            <mxPoint x="-220" y="660" as="targetPoint" />
          </mxGeometry>
        </mxCell>
        <mxCell id="cCSclVaMRaV_BsZJ9kHP-9" style="edgeStyle=none;shape=connector;rounded=0;orthogonalLoop=1;jettySize=auto;html=1;exitX=1;exitY=0.5;exitDx=0;exitDy=0;entryX=0;entryY=0.5;entryDx=0;entryDy=0;labelBackgroundColor=default;strokeColor=#7C8A9A;strokeWidth=2;align=center;verticalAlign=middle;fontFamily=VK Sans Display;fontSize=11;fontColor=#212121;startArrow=oval;startFill=1;endArrow=oval;endFill=1;" parent="cCSclVaMRaV_BsZJ9kHP-1" source="cCSclVaMRaV_BsZJ9kHP-33" target="cCSclVaMRaV_BsZJ9kHP-23" edge="1">
          <mxGeometry relative="1" as="geometry">
            <mxPoint x="-190" y="360" as="targetPoint" />
          </mxGeometry>
        </mxCell>
        <mxCell id="cCSclVaMRaV_BsZJ9kHP-10" style="edgeStyle=orthogonalEdgeStyle;rounded=0;hachureGap=4;orthogonalLoop=1;jettySize=auto;html=1;entryX=0;entryY=0.5;entryDx=0;entryDy=0;fontFamily=VK Sans Display;fontSource=https%3A%2F%2Ffonts.googleapis.com%2Fcss%3Ffamily%3DArchitects%2BDaughter;fontSize=11;endArrow=openThin;strokeColor=#7C8A9A;fontColor=#212121;strokeWidth=2;startArrow=none;startFill=0;endFill=0;" parent="cCSclVaMRaV_BsZJ9kHP-1" target="cCSclVaMRaV_BsZJ9kHP-31" edge="1">
          <mxGeometry relative="1" as="geometry">
            <mxPoint x="-43" y="715" as="sourcePoint" />
            <Array as="points">
              <mxPoint x="-43" y="790" />
            </Array>
          </mxGeometry>
        </mxCell>
        <mxCell id="cCSclVaMRaV_BsZJ9kHP-11" value="Internet" style="shape=image;verticalLabelPosition=bottom;labelBackgroundColor=none;verticalAlign=top;aspect=fixed;imageAspect=0;image=data:image/svg+xml,PHN2ZyB4bWxucz0iaHR0cDovL3d3dy53My5vcmcvMjAwMC9zdmciIGZpbGw9Im5vbmUiIHZpZXdCb3g9IjAgMCAyOCAyOCIgaGVpZ2h0PSIyOCIgd2lkdGg9IjI4Ij4mI3hhOzxwYXRoIGZpbGw9IiMwMDc3RkYiIGQ9Ik0xNC4wMDI4IDJMMTQgMkM3LjM3MjU4IDIgMiA3LjM3MjU4IDIgMTRDMiAyMC42Mjc0IDcuMzcyNTggMjYgMTQgMjZDMjAuNjI3NCAyNiAyNiAyMC42Mjc0IDI2IDE0QzI2IDcuMzczNSAyMC42Mjg5IDIuMDAxNDkgMTQuMDAyOCAyWk0xNi4zMTM4IDIzLjczMUMxOS4wMjI2IDIzLjA4OTMgMjEuMzA1MiAyMS4zNDU5IDIyLjY2MjIgMTlIMTguMzc4N0MxNy45Nzc5IDIwLjUyODYgMTcuNDI5NiAyMS43OTE0IDE2Ljg3NTYgMjIuNzk1NkMxNi42ODY4IDIzLjEzNzcgMTYuNDk3NyAyMy40NDk0IDE2LjMxMzggMjMuNzMxWk0xOC43ODUzIDE3SDIzLjU0MjJDMjMuODM5NiAxNi4wNTMgMjQgMTUuMDQ1MiAyNCAxNEMyNCAxMi45NTQ4IDIzLjgzOTYgMTEuOTQ3IDIzLjU0MjIgMTFIMTguNzg1M0MxOC45MjE0IDExLjkyNDQgMTkgMTIuOTI0IDE5IDE0QzE5IDE1LjA3NiAxOC45MjE0IDE2LjA3NTYgMTguNzg1MyAxN1pNMTYuNzYxMiAxMUMxNi45MTExIDExLjkwOTcgMTcgMTIuOTA5IDE3IDE0QzE3IDE1LjA5MSAxNi45MTExIDE2LjA5MDMgMTYuNzYxMiAxN0gxMS4yMzg4QzExLjA4ODkgMTYuMDkwMyAxMSAxNS4wOTEgMTEgMTRDMTEgMTIuOTA5IDExLjA4ODkgMTEuOTA5NyAxMS4yMzg4IDExSDE2Ljc2MTJaTTE4LjM3ODcgOUgyMi42NjIyQzIxLjMwNTIgNi42NTQxNCAxOS4wMjI2IDQuOTEwNjkgMTYuMzEzOCA0LjI2OTAzQzE2LjQ5NzcgNC41NTA2NCAxNi42ODY4IDQuODYyMzEgMTYuODc1NiA1LjIwNDQyQzE3LjQyOTYgNi4yMDg2IDE3Ljk3NzkgNy40NzE0NSAxOC4zNzg3IDlaTTExLjY4NjIgNC4yNjkwM0M4Ljk3NzQyIDQuOTEwNjkgNi42OTQ4MyA2LjY1NDE0IDUuMzM3ODIgOUg5LjYyMTMxQzEwLjAyMjEgNy40NzE0NSAxMC41NzA0IDYuMjA4NiAxMS4xMjQ0IDUuMjA0NDJDMTEuMzEzMiA0Ljg2MjMxIDExLjUwMjMgNC41NTA2NCAxMS42ODYyIDQuMjY5MDNaTTExLjY5OCA5QzEyLjAzNTcgNy44Njg2MiAxMi40NTc4IDYuOTI3NzMgMTIuODc1NiA2LjE3MDU4QzEzLjI3OTEgNS40MzkxOCAxMy42ODAxIDQuODc2NjYgMTQgNC40NzgzNkMxNC4zMTk5IDQuODc2NjYgMTQuNzIwOSA1LjQzOTE4IDE1LjEyNDQgNi4xNzA1OEMxNS41NDIyIDYuOTI3NzMgMTUuOTY0MyA3Ljg2ODYyIDE2LjMwMiA5SDExLjY5OFpNOS4yMTQ2OCAxMUg0LjQ1NzhDNC4xNjAzNSAxMS45NDcgNCAxMi45NTQ4IDQgMTRDNCAxNS4wNDUyIDQuMTYwMzUgMTYuMDUzIDQuNDU3OCAxN0g5LjIxNDY4QzkuMDc4NTcgMTYuMDc1NiA5IDE1LjA3NiA5IDE0QzkgMTIuOTI0IDkuMDc4NTcgMTEuOTI0NCA5LjIxNDY4IDExWk05LjYyMTMxIDE5SDUuMzM3ODJDNi42OTQ4MyAyMS4zNDU5IDguOTc3NDIgMjMuMDg5MyAxMS42ODYyIDIzLjczMUMxMS41MDIzIDIzLjQ0OTQgMTEuMzEzMiAyMy4xMzc3IDExLjEyNDQgMjIuNzk1NkMxMC41NzA0IDIxLjc5MTQgMTAuMDIyMSAyMC41Mjg2IDkuNjIxMzEgMTlaTTExLjY5OCAxOUgxNi4zMDJDMTUuOTY0MyAyMC4xMzE0IDE1LjU0MjIgMjEuMDcyMyAxNS4xMjQ0IDIxLjgyOTRDMTQuNzIwOSAyMi41NjA4IDE0LjMxOTkgMjMuMTIzMyAxNCAyMy41MjE2QzEzLjY4MDEgMjMuMTIzMyAxMy4yNzkxIDIyLjU2MDggMTIuODc1NiAyMS44Mjk0QzEyLjQ1NzggMjEuMDcyMyAxMi4wMzU3IDIwLjEzMTQgMTEuNjk4IDE5WiIgY2xpcC1ydWxlPSJldmVub2RkIiBmaWxsLXJ1bGU9ImV2ZW5vZGQiLz4mI3hhOzwvc3ZnPg==;fontSize=20;fontFamily=VK Sans Display;fontSource=https%3A%2F%2Ffonts.googleapis.com%2Fcss%3Ffamily%3DArchitects%2BDaughter;opacity=80;" parent="cCSclVaMRaV_BsZJ9kHP-1" vertex="1">
          <mxGeometry x="-63" y="640" width="40" height="40" as="geometry" />
        </mxCell>
        <mxCell id="cCSclVaMRaV_BsZJ9kHP-12" style="edgeStyle=none;shape=connector;rounded=0;orthogonalLoop=1;jettySize=auto;html=1;exitX=0.5;exitY=0;exitDx=0;exitDy=0;labelBackgroundColor=default;strokeColor=#7C8A9A;strokeWidth=2;align=center;verticalAlign=middle;fontFamily=VK Sans Display;fontSize=11;fontColor=#212121;startArrow=oval;startFill=1;endArrow=oval;endFill=1;dashed=1;entryX=0.5;entryY=0;entryDx=0;entryDy=0;" parent="cCSclVaMRaV_BsZJ9kHP-1" target="b6NsYZ9JHDC7_DL7XxHp-1" edge="1">
          <mxGeometry relative="1" as="geometry">
            <Array as="points">
              <mxPoint x="-240" y="300" />
              <mxPoint x="145" y="300" />
            </Array>
            <mxPoint x="-240" y="640" as="sourcePoint" />
            <mxPoint x="87" y="360" as="targetPoint" />
          </mxGeometry>
        </mxCell>
        <mxCell id="cCSclVaMRaV_BsZJ9kHP-13" value="Site-to-Site IPsec" style="edgeLabel;html=1;align=center;verticalAlign=middle;resizable=0;points=[];fontSize=16;fontFamily=VK Sans Display;fontColor=#212121;textOpacity=70;" parent="cCSclVaMRaV_BsZJ9kHP-12" vertex="1" connectable="0">
          <mxGeometry x="0.2338" y="1" relative="1" as="geometry">
            <mxPoint x="72" as="offset" />
          </mxGeometry>
        </mxCell>
        <mxCell id="cCSclVaMRaV_BsZJ9kHP-14" style="edgeStyle=none;shape=connector;rounded=0;orthogonalLoop=1;jettySize=auto;html=1;exitX=1;exitY=0.5;exitDx=0;exitDy=0;entryX=0;entryY=0.5;entryDx=0;entryDy=0;labelBackgroundColor=default;strokeColor=#7C8A9A;strokeWidth=2;align=center;verticalAlign=middle;fontFamily=VK Sans Display;fontSize=11;fontColor=#212121;startArrow=oval;startFill=1;endArrow=oval;endFill=1;" parent="cCSclVaMRaV_BsZJ9kHP-1" source="cCSclVaMRaV_BsZJ9kHP-23" target="cCSclVaMRaV_BsZJ9kHP-20" edge="1">
          <mxGeometry relative="1" as="geometry">
            <mxPoint x="-150" y="360" as="sourcePoint" />
            <mxPoint x="30" y="360" as="targetPoint" />
          </mxGeometry>
        </mxCell>
        <mxCell id="cCSclVaMRaV_BsZJ9kHP-15" style="edgeStyle=none;shape=connector;rounded=0;orthogonalLoop=1;jettySize=auto;html=1;entryX=0.5;entryY=0;entryDx=0;entryDy=0;labelBackgroundColor=default;strokeColor=#7C8A9A;strokeWidth=2;align=center;verticalAlign=middle;fontFamily=VK Sans Display;fontSize=11;fontColor=#212121;startArrow=oval;startFill=1;endArrow=oval;endFill=1;exitX=0;exitY=0.525;exitDx=0;exitDy=0;exitPerimeter=0;" parent="cCSclVaMRaV_BsZJ9kHP-1" source="b6NsYZ9JHDC7_DL7XxHp-1" edge="1">
          <mxGeometry relative="1" as="geometry">
            <Array as="points">
              <mxPoint x="-43" y="349" />
            </Array>
            <mxPoint x="125" y="347" as="sourcePoint" />
            <mxPoint x="-43" y="639" as="targetPoint" />
          </mxGeometry>
        </mxCell>
        <mxCell id="cCSclVaMRaV_BsZJ9kHP-16" value="&lt;font color=&quot;#212121&quot; style=&quot;font-size: 16px;&quot;&gt;Static routes to client subnets via Advanced router&lt;/font&gt;" style="rounded=1;whiteSpace=wrap;html=1;fontFamily=VK Sans Display;strokeColor=none;arcsize=12;fillColor=none;spacing=0;spacingTop=12;spacingBottom=12;arcSize=12;absoluteArcSize=1;strokeWidth=1;fontSize=16;" parent="cCSclVaMRaV_BsZJ9kHP-1" vertex="1">
          <mxGeometry x="50" y="690" width="190" height="100" as="geometry" />
        </mxCell>
        <mxCell id="cCSclVaMRaV_BsZJ9kHP-18" style="edgeStyle=orthogonalEdgeStyle;rounded=0;hachureGap=4;orthogonalLoop=1;jettySize=auto;html=1;entryX=0;entryY=0.5;entryDx=0;entryDy=0;fontFamily=VK Sans Display;fontSource=https%3A%2F%2Ffonts.googleapis.com%2Fcss%3Ffamily%3DArchitects%2BDaughter;fontSize=11;endArrow=oval;strokeColor=#7C8A9A;fontColor=#212121;strokeWidth=2;startArrow=oval;startFill=1;endFill=1;" parent="cCSclVaMRaV_BsZJ9kHP-1" target="cCSclVaMRaV_BsZJ9kHP-22" edge="1">
          <mxGeometry relative="1" as="geometry">
            <mxPoint x="-674.6700000000003" y="660" as="sourcePoint" />
          </mxGeometry>
        </mxCell>
        <mxCell id="cCSclVaMRaV_BsZJ9kHP-21" style="edgeStyle=orthogonalEdgeStyle;rounded=0;hachureGap=4;orthogonalLoop=1;jettySize=auto;html=1;fontFamily=VK Sans Display;fontSource=https%3A%2F%2Ffonts.googleapis.com%2Fcss%3Ffamily%3DArchitects%2BDaughter;fontSize=11;endArrow=oval;strokeColor=#7C8A9A;fontColor=#212121;strokeWidth=2;startArrow=oval;startFill=1;endFill=1;" parent="cCSclVaMRaV_BsZJ9kHP-1" source="cCSclVaMRaV_BsZJ9kHP-22" edge="1">
          <mxGeometry relative="1" as="geometry">
            <mxPoint x="-260" y="660" as="targetPoint" />
          </mxGeometry>
        </mxCell>
        <mxCell id="cCSclVaMRaV_BsZJ9kHP-25" value="&lt;font color=&quot;#212121&quot; style=&quot;font-size: 20px;&quot;&gt;Transit Network&lt;/font&gt;" style="rounded=1;whiteSpace=wrap;html=1;fontFamily=VK Sans Display;strokeColor=none;arcsize=12;fillColor=#F6F7F9;spacing=0;spacingTop=12;spacingBottom=12;arcSize=12;absoluteArcSize=1;fontSize=20;labelBorderColor=none;strokeWidth=1;labelBackgroundColor=none;fontSource=https%3A%2F%2Ffonts.googleapis.com%2Fcss%3Ffamily%3DArchitects%2BDaughter;" parent="cCSclVaMRaV_BsZJ9kHP-1" vertex="1">
          <mxGeometry x="68" y="524" width="160" height="60" as="geometry" />
        </mxCell>
        <mxCell id="cCSclVaMRaV_BsZJ9kHP-32" value="" style="edgeStyle=none;shape=connector;rounded=0;orthogonalLoop=1;jettySize=auto;html=1;exitX=1;exitY=0.5;exitDx=0;exitDy=0;entryX=0;entryY=0.5;entryDx=0;entryDy=0;labelBackgroundColor=default;strokeColor=#7C8A9A;strokeWidth=2;align=center;verticalAlign=middle;fontFamily=VK Sans Display;fontSize=11;fontColor=#212121;startArrow=oval;startFill=1;endArrow=oval;endFill=1;" parent="cCSclVaMRaV_BsZJ9kHP-1" source="cCSclVaMRaV_BsZJ9kHP-11" target="cCSclVaMRaV_BsZJ9kHP-33" edge="1">
          <mxGeometry relative="1" as="geometry">
            <mxPoint x="-358" y="360" as="sourcePoint" />
            <mxPoint x="-190" y="360" as="targetPoint" />
          </mxGeometry>
        </mxCell>
        <mxCell id="Y4ujU0uQn4sbVg1TtPzs-0" value="" style="edgeStyle=orthogonalEdgeStyle;rounded=0;hachureGap=4;orthogonalLoop=1;jettySize=auto;html=1;fontFamily=VK Sans Display;fontSource=https%3A%2F%2Ffonts.googleapis.com%2Fcss%3Ffamily%3DArchitects%2BDaughter;fontSize=11;endArrow=oval;strokeColor=#7C8A9A;fontColor=#212121;strokeWidth=2;startArrow=oval;startFill=1;endFill=1;" edge="1" parent="cCSclVaMRaV_BsZJ9kHP-1">
          <mxGeometry relative="1" as="geometry">
            <mxPoint x="148" y="450" as="sourcePoint" />
            <mxPoint x="147.5" y="524" as="targetPoint" />
          </mxGeometry>
        </mxCell>
        <mxCell id="cCSclVaMRaV_BsZJ9kHP-7" value="&lt;font color=&quot;#212121&quot; style=&quot;font-size: 16px;&quot;&gt;Static routes to clouds subnets via Cloud router&lt;/font&gt;" style="rounded=1;whiteSpace=wrap;html=1;fontFamily=VK Sans Display;strokeColor=none;arcsize=12;fillColor=none;spacing=0;spacingTop=12;spacingBottom=12;arcSize=12;absoluteArcSize=1;strokeWidth=1;fontSize=16;" parent="cCSclVaMRaV_BsZJ9kHP-1" vertex="1">
          <mxGeometry x="40" y="370" width="210" height="93" as="geometry" />
        </mxCell>
        <mxCell id="cCSclVaMRaV_BsZJ9kHP-24" value="" style="edgeStyle=none;shape=connector;rounded=0;orthogonalLoop=1;jettySize=auto;html=1;exitX=0.5;exitY=0;exitDx=0;exitDy=0;labelBackgroundColor=default;strokeColor=#7C8A9A;strokeWidth=2;align=center;verticalAlign=middle;fontFamily=VK Sans Display;fontSize=11;fontColor=#212121;startArrow=oval;startFill=1;endArrow=oval;endFill=1;" parent="cCSclVaMRaV_BsZJ9kHP-1" source="cCSclVaMRaV_BsZJ9kHP-33" target="cCSclVaMRaV_BsZJ9kHP-25" edge="1">
          <mxGeometry relative="1" as="geometry">
            <Array as="points" />
            <mxPoint x="-170" y="340" as="sourcePoint" />
            <mxPoint x="-170" y="190" as="targetPoint" />
          </mxGeometry>
        </mxCell>
      </root>
    </mxGraphModel>
  </diagram>
</mxfile>
